v 0.204692 1.047712 0.394468
v 0.050263 0.937040 0.391619
v 0.220819 1.072271 0.442222
v 0.197726 1.178476 0.495368
v 0.168490 0.971933 0.467845
v 0.124435 0.921084 0.451429
v 0.041146 1.236332 0.466830
v 0.093149 1.200898 0.526406
v 0.188882 1.106081 0.536017
v 0.184391 1.044896 0.552410
v 0.124034 0.989217 0.526176
v 0.126225 1.181082 0.579687
v 0.000685 0.899738 0.445643
v 0.004263 1.238862 0.520641
v 0.023081 1.118541 0.630362
v 0.080464 1.070135 0.606146
v 0.087767 0.960676 0.568922
v -0.010771 1.161362 0.625271
v -0.041382 1.018704 0.606917
v -0.012975 0.952314 0.559504
v -0.096351 1.146306 0.624576
v -0.012788 0.906233 0.505323
v -0.060936 1.208549 0.581129
v -0.107566 1.041679 0.628013
v -0.091059 0.936589 0.573722
v -0.182738 1.038308 0.577727
v -0.116817 1.228899 0.506231
v -0.158763 1.177280 0.552525
v -0.146542 0.988201 0.550251
v -0.042183 1.281134 0.486457
v -0.210789 1.126206 0.547935
v -0.213267 0.987995 0.510955
v -0.229162 1.090550 0.499774
v -0.251077 1.074474 0.442091
v -0.075473 0.923157 0.469332
v -0.194162 1.183363 0.463054
v -0.156265 0.927490 0.446030
v -0.205606 1.020630 0.459544
v -0.025888 1.240229 0.451799
v -0.103688 1.231729 0.468134
v -0.175284 1.149794 0.307989
v -0.194996 1.144825 0.402803
v -0.068672 0.939791 0.431237
v -0.110938 1.203197 0.355563
v -0.160093 1.008567 0.376494
v -0.120678 0.950328 0.358771
v -0.029241 0.917379 0.407883
v 0.061624 1.074786 0.233686
v 0.136168 1.009978 0.314402
v 0.140395 0.944322 0.370428
v -0.004823 0.925352 0.156722
v 0.015011 0.874707 0.183497
v 0.028489 0.953232 0.173257
v 0.074431 0.964544 0.218235
v 0.053696 0.928293 0.183138
v 0.045091 0.890298 0.215398
v 0.022990 0.927018 0.262863
v 0.055339 0.903154 0.251143
v -0.010542 0.853182 0.233051
v -0.014401 0.877155 0.280937
v -0.016402 0.892898 0.243784
v -0.070589 0.935455 0.261194
v -0.090134 0.898809 0.244076
v -0.049787 0.899975 0.224255
v -0.070482 0.911488 0.185418
v -0.036683 0.893446 0.159641
v -0.033587 0.843311 0.206146
v -0.167716 1.211588 -0.133359
v -0.194369 1.267393 -0.191838
v -0.165799 1.225873 -0.446440
v -0.120645 1.153901 -0.486468
v -0.138385 1.068243 -0.487320
v -0.117636 1.305357 -0.319323
v -0.092713 1.296764 -0.410061
v -0.017018 1.220641 -0.373291
v -0.055453 1.196029 -0.422107
v 0.033874 1.100378 -0.428333
v -0.040719 1.107855 -0.464558
v -0.104515 1.048782 -0.463308
v -0.121815 0.978562 -0.432221
v -0.059320 0.874783 -0.335942
v -0.071495 0.926969 -0.080062
v -0.073631 0.885087 -0.137431
v -0.066058 0.859971 -0.196826
v -0.142931 0.896561 -0.059733
v -0.114834 0.831083 -0.255195
v -0.134220 0.894192 -0.419872
v -0.156538 0.843586 -0.193901
v -0.172054 0.842320 -0.327830
v -0.197816 0.874331 -0.093574
v -0.267454 0.881369 -0.184230
v -0.221872 0.870316 -0.306381
v -0.230619 0.927369 -0.381196
v -0.169883 0.934233 -0.394698
v -0.276938 0.979640 -0.116615
v -0.301072 0.906353 -0.305362
v -0.336841 0.984495 -0.179255
v -0.330844 1.051968 -0.232043
v -0.328775 0.978089 -0.295451
v -0.227955 0.948679 -0.444835
v -0.150721 0.968823 -0.456708
v -0.327737 1.130870 -0.157759
v -0.363766 1.129786 -0.281090
v -0.269768 0.997349 -0.406326
v -0.259563 1.150570 -0.140594
v -0.325681 1.071763 -0.360886
v -0.262424 1.212360 -0.168568
v -0.312380 1.209265 -0.283132
v -0.285596 1.089922 -0.431364
v -0.227251 1.024665 -0.448979
v -0.254129 1.261250 -0.375158
v -0.221009 1.145356 -0.473985
v -0.262431 1.210840 -0.415008
v -0.217704 1.278983 -0.305381
v 0.029597 1.054895 0.118870
v 0.023090 1.029681 0.050295
v -0.054444 1.033682 0.028697
v -0.134625 0.994201 0.087650
v -0.172763 1.022935 0.066102
v -0.222847 1.064527 0.217241
v -0.254604 1.025786 0.139290
v -0.251213 1.132915 0.228980
v -0.298842 1.114713 0.183586
v -0.231498 1.014522 0.063275
v -0.275324 1.185884 0.232404
v -0.328881 1.095370 0.096309
v -0.254753 1.081944 0.036919
v -0.278780 1.203233 0.160970
v -0.174522 1.211113 0.260286
v -0.309710 1.156240 0.139472
v -0.308504 1.167182 0.085612
v -0.303256 1.125949 0.032413
v -0.124369 1.200296 0.245864
v -0.256520 1.232949 0.140512
v -0.284151 1.216984 0.048203
v -0.199933 1.237046 0.224883
v -0.252657 1.162078 0.008979
v -0.211007 1.270876 0.102548
v -0.171603 1.149754 -0.056546
v -0.160124 1.259547 0.190142
v -0.125885 1.253869 0.027712
v 0.210220 1.117307 -0.218327
v 0.232550 1.068382 -0.163606
v 0.205012 1.087387 -0.081856
v 0.094064 1.034497 -0.097434
v 0.102849 1.033152 -0.147811
v -0.066021 1.256556 -0.202919
v 0.054208 1.235847 -0.272292
v 0.102958 1.175393 -0.298092
v 0.184784 1.163921 -0.255985
v 0.187991 1.085615 -0.288240
v 0.230994 1.513582 0.200539
v 0.204496 1.448889 0.337166
v 0.147228 1.322005 0.399887
v 0.113040 1.462944 0.356814
v -0.000156 1.393474 0.352943
v -0.022537 1.324649 0.287960
v 0.178391 1.547215 0.231863
v 0.063298 1.478347 0.298032
v -0.089248 1.359462 0.268526
v -0.082360 1.256224 0.229581
v 0.208191 1.542318 0.156995
v 0.068650 1.536847 0.200112
v -0.044915 1.493170 0.193026
v -0.110864 1.300342 0.135597
v -0.058956 1.423652 0.132682
v -0.081348 1.410831 0.061798
v 0.114486 1.572536 0.098082
v -0.024874 1.519587 0.017754
v -0.052311 1.393387 -0.062680
v 0.017568 1.478212 -0.066181
v 0.116160 1.565928 -0.030493
v 0.063173 1.531763 -0.135077
v 0.008872 1.406388 -0.155169
v 0.117768 1.392245 -0.241648
v 0.221945 1.546340 0.083689
v 0.239518 1.555385 -0.046640
v 0.190676 1.454739 -0.209562
v 0.245371 1.362765 -0.246857
v 0.292059 1.542077 -0.020118
v 0.313307 1.461548 -0.149019
v 0.323609 1.348043 -0.220169
v 0.276380 1.251966 -0.227610
v 0.259739 1.561075 0.116456
v 0.379525 1.443145 -0.099673
v 0.325827 1.208681 -0.149144
v 0.349642 1.527422 0.050425
v 0.368061 1.277077 -0.154743
v 0.431506 1.357588 -0.030687
v 0.375691 1.195670 -0.033045
v 0.404492 1.421776 0.070959
v 0.302829 1.122257 -0.000349
v 0.345966 1.504385 0.118541
v 0.421119 1.270819 0.078198
v 0.353562 1.131853 0.071278
v 0.376860 1.381844 0.195589
v 0.096827 1.091614 0.012542
v 0.324670 1.190355 0.212476
v 0.236225 1.114851 0.203000
v 0.328805 1.240125 0.278381
v 0.078786 1.085409 0.085351
v 0.282091 1.501542 0.229503
v 0.278063 1.365661 0.336080
v 0.270180 1.348680 0.343020
v 0.125666 1.077560 -0.476836
v 0.135339 1.097619 -0.401092
v 0.141486 0.861406 -0.499447
v 0.182818 1.009755 -0.489623
v 0.199573 1.068534 -0.337192
v 0.210604 1.055342 -0.434387
v 0.167610 0.943204 -0.504889
v 0.231806 0.988132 -0.326317
v 0.242026 0.964331 -0.441163
v 0.248972 0.910840 -0.388883
v 0.250944 0.957768 -0.296881
v 0.228098 0.880842 -0.263919
v 0.219066 0.883277 -0.488372
v 0.263960 0.863196 -0.355029
v 0.195660 0.840312 -0.451476
v 0.180700 0.924131 -0.231731
v 0.143379 0.876494 -0.218624
v 0.195710 0.810989 -0.249297
v 0.212252 0.771446 -0.315292
v 0.207993 0.778714 -0.434043
v 0.098135 0.886564 -0.202607
v 0.153806 0.784125 -0.460494
v 0.093557 0.781633 -0.223525
v 0.126849 0.772061 -0.257692
v 0.069634 0.834055 -0.228066
v 0.031571 0.758764 -0.282626
v 0.102058 0.718351 -0.400191
v -0.005024 0.873516 -0.245666
v 0.097209 0.705427 -0.329571
v 0.062137 0.784015 -0.438129
v -0.008732 0.793336 -0.349931
v 0.101398 0.795590 -0.489074
v -0.002519 0.811197 -0.449062
v 0.031703 0.872386 -0.485821
v 0.021538 0.959313 -0.494966
v 0.070842 0.884759 -0.515896
v 0.077708 1.033621 -0.492521
v 0.138977 0.930022 -0.537813
v -0.061772 1.290366 -0.108558
v 0.001070 1.298391 -0.159257
v 0.096024 1.272004 -0.210477
v 0.026007 1.311700 -0.233704
v 0.061019 1.093668 -0.036347
v 0.102659 0.996582 -0.212635
v 0.155009 1.248210 -0.240516
v 0.085894 1.106676 -0.334527
v 0.151673 1.092139 -0.044181
v 0.179229 1.035833 -0.249891
v 0.241114 1.181505 -0.175993
v 0.235895 1.105907 -0.108950
v -0.116069 1.262004 0.068342
v 0.040879 1.105088 0.029560
v 0.071986 1.083154 0.159634
v 0.029753 1.181329 -0.326986
v 0.031606 0.917157 -0.207502
v -0.015103 1.021179 -0.421405
v -0.043801 0.972875 -0.455728
v -0.047491 0.913148 -0.411106
v 0.016107 1.012951 -0.153558
v -0.017465 1.251820 -0.289923
v -0.116065 1.241851 -0.179781
v -0.020507 1.039710 -0.091299
v -0.089602 1.051011 -0.036250
v -0.132429 1.034040 -0.044266
v -0.093386 1.236384 -0.123937
v -0.092155 1.174322 -0.039324
v -0.183478 1.043782 -0.033116
v -0.214103 1.112179 -0.046876
v -0.127417 1.004669 0.210403
v -0.091875 0.977537 0.168202
v -0.041953 0.983288 0.140113
v 0.004517 1.007856 0.150527
v 0.038610 1.024867 0.187633
v 0.051261 1.254714 0.383235
v -0.017678 1.246333 0.343421
v -0.107833 1.155348 0.298876
v -0.159096 1.077168 0.292288
v -0.078391 1.044354 0.244132
v -0.064461 0.966701 0.308978
v -0.005526 0.927149 0.316573
v 0.036951 0.963779 0.303611
v 0.075925 0.982786 0.277690
v 0.126559 1.223849 0.410091
v 0.187274 1.190839 0.376203
v 0.205866 1.135477 0.314414
v 0.162733 1.125796 0.288931
v -0.064993 -0.011651 0.019880
v 0.087508 -0.011651 -0.019857
v -0.104731 -0.011651 -0.132620
v 0.047770 -0.011651 -0.172358
v -0.049586 0.159427 -0.031431
v 0.035722 0.159427 -0.035490
v -0.048538 0.203488 -0.117738
v 0.031663 0.159427 -0.120799
v 0.034813 0.488341 -0.090680
v -0.022230 0.657085 -0.079591
v 0.005007 0.604697 0.016065
v 0.045920 0.637433 -0.043708
v 0.044291 0.582212 -0.098304
v 0.044291 0.626847 -0.084487
v 0.003885 0.638499 -0.105763
v 0.119445 0.731672 -0.243542
v 0.103613 0.752734 -0.226393
v 0.119144 0.805918 -0.274139
v 0.104776 0.797627 -0.287006
v 0.107226 0.814390 -0.264251
v 0.023612 0.740037 0.024713
v -0.008405 1.001845 0.174002
v 0.017281 0.989149 0.191657
v -0.044377 0.718207 -0.044777
v -0.041782 0.742394 -0.025437
v -0.054991 0.735792 -0.010966
v -0.132060 0.828397 -0.122197
v -0.148182 0.811566 -0.111962
v -0.132572 0.839469 -0.096935
v -0.167967 0.893954 -0.177570
v -0.180870 0.881994 -0.177050
v -0.170028 0.893053 -0.158748
v -0.103964 -0.011651 -0.051392
v 0.086742 -0.011651 -0.101085
v -0.073960 0.119397 -0.068444
v 0.039819 0.218739 -0.068297
v -0.061756 0.427169 -0.055529
v 0.005007 0.507908 -0.015355
v -0.040834 0.742701 0.032772
v -0.005754 0.725361 0.056884
v -0.029907 0.991100 0.197558
v -0.004221 0.978403 0.215212
v -0.060371 0.707250 -0.023649
v -0.145624 0.828713 -0.089805
v -0.182153 0.884467 -0.154579
v 0.016235 -0.011651 0.019114
v -0.033458 -0.011651 -0.171592
v -0.006423 0.159427 -0.017564
v -0.018058 0.108286 -0.142902
v -0.022230 0.546487 -0.113135
v -0.063143 0.624349 -0.019819
v 0.003885 0.587981 -0.121085
v 0.092766 0.720277 -0.255689
v 0.074802 0.744154 -0.236484
v 0.092580 0.809587 -0.273594
v -0.011469 0.757377 0.000601

vn 0.1723 -0.8774 -0.4477
vn 0.4970 0.8665 0.0463
vn 0.8796 -0.4726 -0.0540
vn 0.9511 0.0546 0.3042
vn 0.2833 0.9124 0.2954
vn 0.7014 0.6900 -0.1788
vn 0.5493 -0.0274 0.8352
vn -0.0772 0.8258 0.5586
vn 0.3965 0.9047 -0.1557
vn 0.8001 -0.1446 0.5822
vn -0.2711 0.8350 0.4788
vn 0.4193 0.0433 0.9068
vn 0.5010 0.4815 0.7191
vn 0.1368 -0.3100 0.9409
vn 0.1364 -0.3092 0.9412
vn 0.1371 -0.3107 0.9406
vn 0.1984 0.7737 0.6016
vn 0.1364 -0.3091 0.9412
vn 0.2434 -0.1750 0.9540
vn 0.1311 -0.4387 0.8890
vn 0.7556 0.5718 -0.3196
vn 0.0709 -0.4441 0.8931
vn -0.2821 -0.9585 0.0406
vn -0.5145 0.4331 0.7401
vn -0.6580 -0.4246 0.6218
vn -0.4912 0.6689 0.5580
vn -0.3010 -0.9505 0.0774
vn -0.6795 -0.7337 -0.0071
vn -0.3931 0.7699 0.5026
vn -0.4004 0.7638 0.5063
vn -0.3932 0.7699 0.5026
vn -0.8884 -0.1348 0.4387
vn -0.6002 0.7462 0.2882
vn -0.6791 0.6636 0.3138
vn -0.5929 0.7920 -0.1455
vn -0.8802 -0.0855 0.4669
vn -0.3874 -0.6424 0.6612
vn -0.9233 0.3771 0.0731
vn -0.3844 -0.8189 -0.4262
vn -0.3886 0.7786 -0.4927
vn 0.0632 -0.9187 -0.3899
vn -0.6871 -0.6708 -0.2791
vn 0.1004 -0.9718 -0.2134
vn -0.4116 -0.8963 0.1651
vn -0.4985 -0.8668 -0.0099
vn -0.1539 0.9601 -0.2334
vn -0.6207 0.7686 -0.1548
vn -0.5698 -0.6338 -0.5231
vn -0.5231 -0.8224 -0.2238
vn 0.5620 -0.7639 -0.3171
vn 0.1127 -0.8630 -0.4925
vn -0.1162 -0.8877 -0.4455
vn 0.5216 -0.1224 -0.8444
vn 0.4087 0.0521 -0.9112
vn 0.4051 -0.2983 -0.8642
vn 0.7280 0.0346 -0.6847
vn 0.6144 0.3386 -0.7127
vn 0.9903 0.1239 -0.0629
vn 0.9154 -0.3698 -0.1588
vn 0.5777 -0.8067 0.1245
vn 0.6051 -0.6831 0.4089
vn 0.8173 -0.5383 0.2056
vn -0.6282 -0.3746 0.6819
vn -0.7385 -0.6433 0.2020
vn -0.6082 0.0802 0.7897
vn -0.6216 -0.3941 0.6770
vn -0.6634 0.0043 0.7482
vn -0.8094 -0.4167 -0.4138
vn -0.8531 -0.3717 -0.3662
vn -0.4753 -0.8798 -0.0075
vn -0.4601 -0.2143 -0.8616
vn 0.7605 -0.4158 -0.4988
vn -0.0753 0.9073 0.4137
vn 0.5354 -0.1025 -0.8383
vn 0.4223 -0.3142 -0.8503
vn 0.4663 0.4458 -0.7641
vn 0.6630 -0.4335 -0.6103
vn 0.6301 0.6190 -0.4688
vn 0.3067 -0.3500 -0.8851
vn -0.2756 -0.5643 -0.7782
vn 0.5926 -0.1900 0.7828
vn 0.6956 -0.4141 0.5871
vn 0.5907 -0.3212 0.7402
vn 0.6718 -0.2030 -0.7123
vn 0.2341 -0.8804 -0.4125
vn 0.1757 -0.8985 0.4023
vn 0.3222 -0.1301 0.9377
vn -0.5068 -0.0581 0.8601
vn 0.1890 -0.9330 0.3063
vn -0.2372 -0.9708 0.0367
vn 0.1375 -0.3431 0.9292
vn -0.7852 -0.4049 -0.4685
vn -0.4683 -0.8813 0.0626
vn -0.5769 -0.6806 -0.4516
vn -0.6151 -0.1186 0.7795
vn -0.0103 -0.8719 -0.4895
vn -0.9229 -0.2748 0.2699
vn -0.8624 0.1553 0.4819
vn -0.6972 -0.1731 -0.6957
vn -0.2846 0.1615 0.9450
vn -0.7238 -0.0560 0.6878
vn -0.6915 -0.5535 -0.4642
vn -0.9974 0.0662 -0.0286
vn -0.9324 -0.1857 -0.3100
vn -0.9353 -0.2223 0.2752
vn -0.6973 -0.0326 -0.7160
vn -0.4947 0.6930 0.5244
vn -0.4982 0.6877 0.5281
vn -0.4983 0.6875 0.5282
vn -0.8332 0.1747 -0.5247
vn -0.3205 0.3782 0.8685
vn -0.3198 0.3784 0.8686
vn -0.3262 0.3772 0.8668
vn -0.5455 0.8098 0.2160
vn -0.5759 0.8121 0.0942
vn -0.2648 0.6345 0.7262
vn -0.6633 0.2237 -0.7142
vn -0.3629 -0.2328 -0.9023
vn -0.3371 0.5033 -0.7956
vn -0.3284 0.6184 -0.7139
vn -0.1468 0.4088 -0.9007
vn -0.2381 0.9637 -0.1206
vn -0.3532 0.7519 0.5567
vn 0.3051 0.9517 0.0344
vn -0.1788 0.8947 0.4092
vn 0.6178 -0.7552 0.2191
vn 0.7294 -0.5867 -0.3518
vn -0.6349 -0.7658 0.1026
vn -0.4209 -0.7322 0.5354
vn -0.1143 -0.9894 -0.0893
vn 0.1307 -0.9742 0.1841
vn -0.6697 -0.3866 0.6340
vn -0.6901 0.4497 0.5671
vn -0.5668 -0.3621 0.7400
vn -0.2016 -0.7375 -0.6446
vn -0.6644 -0.2816 0.6923
vn 0.1487 -0.9644 -0.2187
vn -0.5885 -0.3160 0.7442
vn -0.2246 -0.1643 0.9605
vn -0.6040 -0.4622 -0.6494
vn -0.9636 0.2455 0.1062
vn -0.8133 0.3101 0.4923
vn -0.9601 0.2776 0.0349
vn -0.3495 0.6184 0.7038
vn -0.6260 -0.6451 0.4382
vn -0.5529 -0.6613 -0.5069
vn -0.6031 0.7066 0.3702
vn -0.8499 0.5198 0.0866
vn -0.8347 0.5273 0.1587
vn 0.3037 0.8593 0.4115
vn -0.7930 0.6088 0.0215
vn -0.5496 0.2534 -0.7960
vn -0.6154 0.7867 0.0482
vn -0.1406 0.7911 -0.5953
vn -0.0512 0.5609 -0.8263
vn -0.4701 0.8389 0.2745
vn -0.3257 0.7706 -0.5478
vn 0.1692 0.7275 0.6650
vn -0.0945 0.8680 -0.4875
vn 0.3690 -0.8702 0.3266
vn 0.2697 -0.9602 0.0727
vn 0.3034 -0.7923 0.5294
vn 0.3962 -0.8766 0.2730
vn -0.0214 -0.9230 0.3841
vn 0.1714 -0.9004 0.4000
vn -0.5191 0.8545 -0.0211
vn 0.1993 0.5162 -0.8330
vn -0.0029 0.5448 0.8386
vn 0.6578 0.5369 0.5282
vn -0.5005 0.8278 -0.2534
vn -0.4768 -0.5165 0.7113
vn -0.2585 0.8582 0.4436
vn -0.0673 0.9935 -0.0918
vn -0.2217 0.8424 0.4912
vn -0.9774 0.0144 -0.2111
vn -0.3268 0.7582 0.5642
vn -0.9667 -0.0257 0.2545
vn 0.0158 0.8996 0.4363
vn -0.8322 0.3603 0.4215
vn 0.0744 0.9304 0.3589
vn -0.4159 0.9003 0.1281
vn -0.2109 0.6647 -0.7167
vn 0.1331 0.8374 -0.5301
vn -0.7505 0.6075 -0.2602
vn -0.7174 0.5747 -0.3938
vn -0.2019 -0.9735 0.1070
vn 0.2306 0.9719 -0.0469
vn -0.4255 0.7077 -0.5640
vn -0.6826 0.7225 0.1098
vn -0.8725 0.4183 -0.2524
vn 0.1687 0.8151 -0.5541
vn -0.3670 0.7265 -0.5810
vn 0.0560 0.4036 -0.9132
vn -0.2143 0.9592 -0.1842
vn 0.1090 -0.1404 -0.9841
vn 0.1978 0.8457 -0.4957
vn 0.8729 0.1645 -0.4593
vn 0.5072 0.7660 -0.3949
vn 0.9075 0.2791 -0.3139
vn 0.5172 -0.3821 -0.7658
vn 0.3123 0.9482 -0.0580
vn 0.8544 0.1095 -0.5080
vn 0.7699 -0.5071 -0.3875
vn 0.8909 0.4481 -0.0742
vn 0.9331 -0.3193 -0.1654
vn 0.5192 0.8007 0.2988
vn 0.8507 0.4823 0.2090
vn 0.7152 -0.3770 0.5885
vn 0.8945 0.1192 0.4308
vn 0.6486 -0.7610 0.0099
vn 0.1487 -0.9885 0.0271
vn 0.1644 -0.9855 -0.0433
vn 0.7954 0.5868 0.1517
vn 0.7215 0.4140 0.5551
vn 0.7994 0.0770 0.5958
vn 0.6552 -0.6221 0.4287
vn 0.5631 0.0227 0.8261
vn 0.1255 -0.9650 0.2302
vn -0.0622 0.8780 0.4747
vn -0.0267 0.9055 0.4236
vn 0.3515 0.2825 0.8925
vn 0.2482 0.7380 0.6275
vn 0.3721 0.8844 -0.2817
vn 0.9455 0.3252 0.0167
vn 0.5761 0.2834 -0.7667
vn 0.1735 -0.1204 -0.9774
vn 0.9957 0.0724 -0.0583
vn 0.8471 0.0961 0.5227
vn 0.6382 0.1352 0.7579
vn 0.9685 0.2128 -0.1293
vn 0.5653 -0.2976 -0.7693
vn 0.8617 -0.3125 0.3997
vn 0.8596 -0.3138 0.4032
vn 0.8595 -0.3138 0.4034
vn 0.6822 -0.6534 -0.3281
vn 0.9815 0.1898 -0.0236
vn 0.5206 -0.0631 0.8515
vn 0.0913 -0.3616 0.9279
vn 0.3616 -0.7570 0.5442
vn 0.3619 -0.7566 0.5446
vn 0.3629 -0.7551 0.5461
vn -0.0309 0.0920 0.9953
vn 0.3642 -0.7531 0.5480
vn 0.1847 -0.5081 0.8412
vn 0.4594 -0.8788 -0.1293
vn 0.4187 -0.1687 -0.8923
vn -0.6286 -0.2223 0.7453
vn -0.7994 -0.5789 -0.1608
vn -0.2586 -0.8202 -0.5103
vn -0.7872 -0.4017 0.4678
vn -0.8141 -0.5416 0.2093
vn -0.1186 -0.6003 -0.7909
vn 0.1445 -0.2393 -0.9601
vn -0.9241 -0.3618 -0.1231
vn -0.7190 -0.1553 -0.6774
vn -0.5717 -0.1517 -0.8063
vn -0.3971 0.1602 -0.9037
vn -0.2685 0.5702 -0.7764
vn 0.4668 0.3531 -0.8108
vn 0.5304 -0.8474 0.0253
vn 0.6332 -0.6907 -0.3493
vn 0.1101 -0.9547 0.2763
vn 0.9413 -0.2937 -0.1662
vn 0.3674 0.1540 0.9172
vn -0.8152 0.2965 -0.4976
vn -0.6143 0.0741 -0.7856
vn -0.8555 0.4115 0.3143
vn -0.6584 0.6192 0.4279
vn 0.2403 -0.3097 -0.9200
vn -0.9553 0.2310 0.1845
vn 0.3146 0.5982 -0.7370
vn 0.3974 -0.8803 -0.2592
vn -0.7366 -0.4511 -0.5039
vn -0.8331 0.5315 -0.1529
vn -0.5335 0.4136 -0.7378
vn -0.5898 0.3558 -0.7250
vn -0.7388 -0.4344 -0.5152
vn -0.4827 -0.8361 -0.2605
vn 0.5305 -0.7024 -0.4746
vn -0.1888 -0.9295 0.3169
vn -0.0009 -0.9794 -0.2021
vn 0.7924 0.1740 -0.5846
vn -0.7047 0.4174 0.5737
vn -0.2743 0.1564 0.9488
vn 0.9758 0.1402 0.1680
vn 0.1277 -0.8816 -0.4544
vn -0.1459 0.9883 0.0446
vn 0.7710 -0.5931 -0.2321
vn 0.9688 0.2407 -0.0600
vn 0.9482 0.0154 0.3173
vn 0.8895 -0.4151 0.1909
vn 0.2945 0.9251 0.2396
vn 0.2968 0.9234 0.2433
vn 0.2968 0.9234 0.2436
vn 0.5142 -0.6325 0.5793
vn 0.3403 0.4284 0.8371
vn 0.0955 -0.7354 0.6709
vn 0.4872 0.1925 0.8518
vn 0.4304 -0.7219 0.5419
vn 0.5984 -0.8007 -0.0269
vn 0.3757 -0.9084 0.1837
vn 0.2397 -0.6141 0.7520
vn 0.0027 -0.7617 0.6479
vn 0.2821 0.7511 0.5969
vn -0.0267 -0.5885 0.8081
vn -0.2385 -0.0734 0.9684
vn -0.1139 0.6114 0.7831
vn 0.2506 -0.4893 0.8353
vn 0.2619 -0.7347 0.6258
vn 0.2266 0.7508 0.6205
vn -0.5655 0.0971 0.8190
vn -0.4039 -0.6466 0.6471
vn -0.3931 0.7701 0.5025
vn -0.3500 0.2761 0.8952
vn -0.2640 -0.8517 0.4527
vn -0.2278 0.5750 -0.7858
vn -0.4873 -0.7026 -0.5186
vn -0.2798 -0.2814 0.9179
vn -0.7546 -0.4992 0.4258
vn -0.9515 -0.1751 -0.2529
vn -0.4652 0.8801 -0.0949
vn -0.8815 0.4187 0.2182
vn -0.8205 0.4866 -0.2999
vn -0.8324 -0.3829 -0.4006
vn -0.8018 -0.4104 -0.4344
vn -0.9631 -0.1695 -0.2091
vn -0.7962 0.3653 -0.4823
vn -0.7133 -0.5392 -0.4477
vn -0.5994 0.7961 -0.0829
vn -0.1487 0.7516 -0.6426
vn -0.4176 0.9084 0.0195
vn -0.6268 -0.5626 -0.5390
vn -0.6200 -0.1878 -0.7618
vn -0.1034 -0.9043 -0.4141
vn 0.2314 -0.9719 -0.0439
vn 0.0086 -0.9564 -0.2919
vn 0.5693 -0.2990 -0.7658
vn 0.7900 -0.2989 -0.5353
vn 0.7845 -0.3726 -0.4958
vn 0.0135 -0.9618 -0.2733
vn 0.8475 -0.5305 0.0148
vn 0.9339 0.0689 -0.3508
vn 0.2798 -0.3608 -0.8897
vn 0.2687 -0.1023 -0.9578
vn 0.7307 -0.5304 -0.4298
vn 0.6929 0.0465 -0.7195
vn 0.5326 -0.8415 -0.0909
vn 0.9308 -0.3351 -0.1463
vn 0.9617 -0.2680 0.0581
vn 0.0916 -0.3362 0.9373
vn 0.0444 -0.3913 0.9192
vn 0.6271 -0.5229 0.5774
vn 0.7038 -0.6397 -0.3090
vn -0.2077 -0.2836 0.9362
vn 0.0341 -0.9196 -0.3915
vn -0.5231 -0.6810 0.5124
vn 0.3809 -0.5503 0.7430
vn -0.5283 -0.2933 0.7968
vn -0.9866 -0.0461 0.1567
vn -0.0895 -0.9669 -0.2390
vn -0.9603 -0.2194 -0.1726
vn -0.6807 -0.3832 -0.6243
vn 0.1157 -0.2045 -0.9720
vn 0.1442 0.7479 0.6480
vn 0.6755 0.7281 0.1166
vn 0.2644 0.2104 -0.9412
vn 0.3242 0.6069 -0.7256
vn 0.6568 0.3244 -0.6807
vn 0.1565 -0.1895 -0.9693
vn 0.4201 0.8882 0.1861
vn 0.5165 0.8030 -0.2975
vn 0.7486 0.1232 -0.6515
vn 0.4263 0.4492 -0.7851
vn 0.7490 0.6219 -0.2286
vn 0.7014 0.5706 -0.4272
vn 0.3886 -0.3160 -0.8655
vn 0.4793 0.3010 -0.8244
vn -0.2945 -0.3253 -0.8986
vn 0.8926 -0.3794 0.2437
vn 0.1344 -0.1628 -0.9775
vn -0.0420 -0.3382 0.9401
vn 0.1788 -0.9115 -0.3704
vn 0.1790 -0.9330 0.3121
vn 0.6670 -0.4485 -0.5949
vn -0.7816 -0.6076 -0.1408
vn 0.4556 -0.7270 0.5137
vn 0.2071 -0.9083 0.3635
vn -0.3055 -0.9383 0.1618
vn -0.1130 -0.5828 -0.8047
vn -0.7306 -0.4335 0.5276
vn -0.3250 -0.9450 -0.0358
vn -0.5507 -0.2388 0.7998
vn -0.4138 -0.9075 -0.0723
vn -0.1281 -0.9907 0.0457
vn -0.9101 -0.3756 0.1751
vn -0.3542 -0.7631 -0.5405
vn 0.1964 -0.9322 -0.3039
vn -0.8181 -0.5342 -0.2131
vn -0.9969 0.0330 -0.0710
vn -0.8144 -0.3140 -0.4880
vn -0.1383 -0.0527 -0.9890
vn -0.9383 -0.2400 0.2490
vn -0.4942 0.6938 0.5239
vn -0.3271 0.3771 0.8665
vn -0.8017 -0.2799 -0.5281
vn -0.5703 -0.3039 -0.7631
vn -0.7484 0.6281 0.2131
vn -0.7888 0.5185 0.3300
vn -0.8706 0.2259 -0.4370
vn -0.8212 0.5252 -0.2231
vn -0.8266 0.4265 -0.3673
vn -0.5742 0.7942 0.1991
vn -0.4446 -0.1596 -0.8814
vn -0.2320 -0.1858 -0.9548
vn -0.1264 0.0360 -0.9913
vn -0.2728 0.9479 -0.1647
vn -0.3226 0.7452 0.5836
vn -0.2946 0.6589 -0.6921
vn 0.7194 -0.3368 -0.6075
vn 0.5386 -0.8422 0.0237
vn 0.7001 -0.6161 -0.3608
vn 0.8798 -0.4702 0.0700
vn 0.8996 -0.4306 0.0729
vn 0.0084 -0.9774 -0.2113
vn 0.4967 -0.7685 -0.4033
vn 0.1325 -0.8974 -0.4208
vn -0.8004 -0.3388 0.4945
vn -0.6537 -0.7517 -0.0873
vn -0.6177 0.0585 -0.7842
vn -0.5318 0.8167 0.2241
vn -0.9285 0.2435 -0.2803
vn -0.2761 0.9197 0.2793
vn -0.9457 0.2749 0.1734
vn -0.3639 0.8731 0.3243
vn -0.1991 0.8625 0.4653
vn -0.3727 0.5064 0.7776
vn 0.9970 -0.0764 -0.0086
vn 0.6966 -0.6107 0.3766
vn 0.4294 -0.8058 0.4077
vn -0.5727 -0.7215 0.3891
vn 0.0047 -0.7170 0.6971
vn 0.2223 -0.9728 0.0647
vn -0.3558 0.8848 -0.3010
vn 0.5228 0.5329 -0.6654
vn 0.0660 0.8412 -0.5367
vn 0.4687 0.3169 -0.8245
vn 0.7223 0.3632 -0.5885
vn 0.8192 -0.0162 -0.5733
vn 0.9069 0.1917 -0.3752
vn 0.8784 -0.1172 -0.4633
vn -0.7616 0.0133 0.6479
vn 0.6534 0.6273 0.4237
vn -0.6023 0.6993 0.3849
vn -0.4237 -0.3443 0.8378
vn -0.5463 0.7978 0.2551
vn -0.8984 0.3833 0.2145
vn -0.7173 0.6247 0.3087
vn -0.8432 0.5085 0.1744
vn -0.8243 0.2161 -0.5233
vn -0.3280 0.9432 -0.0527
vn 0.0955 0.9921 0.0817
vn 0.0378 0.9441 -0.3276
vn -0.3446 0.2922 -0.8921
vn -0.0453 -0.0196 -0.9988
vn 0.1993 0.9754 0.0946
vn 0.4583 0.6882 -0.5625
vn 0.3605 0.5259 -0.7703
vn 0.3549 0.5195 -0.7773
vn 0.3608 0.5264 -0.7699
vn 0.3615 0.5269 -0.7692
vn 0.2144 -0.4408 -0.8716
vn 0.6210 0.2078 -0.7558
vn 0.5739 0.7575 -0.3111
vn 0.9128 -0.3108 -0.2651
vn 0.8762 0.4771 -0.0684
vn 0.5708 -0.7321 -0.3718
vn 0.1543 -0.9780 0.1401
vn 0.8983 -0.4330 -0.0743
vn 0.5957 -0.7352 -0.3234
vn 0.9757 0.1164 0.1858
vn 0.8501 0.4168 0.3220
vn 0.9597 -0.2474 0.1335
vn 0.1677 -0.9856 0.0222
vn 0.8244 -0.4754 0.3073
vn 0.3502 0.5603 0.7506
vn 0.1926 -0.9812 -0.0122
vn 0.8167 -0.1515 0.5568
vn 0.0965 -0.9737 0.2066
vn 0.6004 -0.7410 0.3008
vn -0.2741 -0.9501 -0.1489
vn 0.4515 -0.2637 0.8524
vn 0.6041 -0.4945 0.6249
vn 0.5709 0.4961 0.6541
vn 0.4653 -0.8845 -0.0348
vn 0.2895 0.2439 0.9256
vn 0.2470 0.3375 0.9083
vn 0.7768 -0.2854 -0.5613
vn 0.4851 0.5388 -0.6887
vn 0.0372 0.2154 -0.9758
vn 0.5363 0.8283 -0.1621
vn 0.1965 0.9804 0.0126
vn 0.4660 0.8823 -0.0669
vn 0.7310 0.2981 -0.6138
vn 0.6457 0.0275 -0.7631
vn 0.9243 0.3778 0.0536
vn 0.9208 0.3806 0.0850
vn 0.8615 0.2059 0.4641
vn 0.8584 0.5122 -0.0298
vn 0.9592 -0.1237 -0.2541
vn 0.2228 0.7473 0.6260
vn 0.2778 0.0464 0.9595
vn 0.9483 0.0800 -0.3072
vn 0.2916 -0.7096 -0.6414
vn 0.9176 -0.1087 0.3823
vn 0.7266 -0.5734 -0.3785
vn 0.8594 -0.3140 0.4035
vn 0.3469 0.0710 0.9352
vn 0.4237 -0.0838 0.9019
vn 0.5031 -0.8613 -0.0708
vn -0.1395 0.0221 0.9900
vn 0.2285 -0.7495 -0.6214
vn 0.6159 -0.3597 0.7009
vn -0.0824 -0.7137 0.6956
vn 0.1897 -0.7404 -0.6448
vn 0.3824 -0.3666 -0.8482
vn -0.2182 -0.3273 0.9194
vn 0.0500 -0.9480 0.3143
vn -0.5297 -0.6422 -0.5541
vn -0.6368 -0.7709 -0.0146
vn -0.4013 -0.3896 0.8290
vn -0.4010 -0.3888 0.8295
vn -0.4030 -0.3941 0.8260
vn -0.4032 -0.3945 0.8257
vn -0.6080 -0.7738 -0.1775
vn -0.6727 -0.4148 -0.6127
vn -0.8196 -0.4477 -0.3575
vn -0.5668 -0.1675 -0.8066
vn -0.6967 -0.0407 -0.7162
vn -0.5213 -0.4898 -0.6988
vn -0.2806 0.6611 -0.6958
vn -0.5783 0.4593 -0.6743
vn -0.1700 0.1605 -0.9723
vn 0.0424 -0.4864 -0.8727
vn -0.6042 0.3094 -0.7343
vn 0.0976 0.9589 -0.2664
vn 0.4888 0.5757 -0.6555
vn 0.0528 0.9940 -0.0960
vn 0.1021 0.2338 -0.9669
vn 0.4454 0.3306 -0.8321
vn 0.1019 -0.6206 -0.7775
vn 0.4110 -0.6636 -0.6251
vn 0.2842 -0.8354 0.4705
vn 0.4108 -0.6207 -0.6679
vn 0.4715 -0.8809 0.0409
vn -0.6319 0.0749 -0.7714
vn 0.8651 -0.1428 -0.4807
vn 0.1589 -0.2746 -0.9483
vn -0.4921 -0.1340 -0.8602
vn -0.6614 0.7448 -0.0884
vn -0.9730 0.2247 -0.0528
vn -0.9026 -0.0203 -0.4301
vn -0.8189 0.2970 0.4911
vn -0.9012 0.2427 -0.3590
vn -0.9135 0.3151 -0.2573
vn 0.1679 -0.8588 0.4840
vn 0.1942 -0.9165 -0.3497
vn 0.4741 -0.3725 0.7978
vn -0.2016 0.9635 0.1762
vn -0.3339 0.9153 0.2252
vn 0.3115 0.5203 -0.7951
vn -0.0299 0.6367 -0.7705
vn 0.3380 0.5867 -0.7359
vn 0.4946 -0.7691 0.4048
vn 0.4965 -0.7750 0.3910
vn 0.3680 -0.8999 -0.2340
vn 0.3421 -0.9239 0.1713
vn -0.2217 -0.9588 -0.1775
vn -0.5651 0.7443 -0.3559
vn 0.3674 0.3628 -0.8564
vn -0.5235 -0.8458 0.1029
vn -0.2240 -0.4555 0.8616
vn 0.3243 0.7690 0.5509
vn 0.0084 0.9764 0.2157
vn -0.6562 -0.2963 0.6940
vn -0.3979 0.6902 -0.6044
vn -0.5004 0.0036 0.8658
vn -0.9687 0.1007 0.2270
vn 0.6041 -0.4944 -0.6250
vn -0.2492 0.1175 0.9613
vn 0.5875 -0.2730 -0.7618
vn 0.0561 0.6126 0.7884
vn 0.4829 -0.0107 0.8756
vn 0.2941 0.9254 0.2391
vn 0.5058 -0.5850 -0.6339
vn -0.8403 0.0106 0.5419
vn 0.8827 0.2375 -0.4054
vn -0.8485 0.2546 0.4639
vn -0.4630 0.2620 -0.8467
vn 0.3798 0.2417 0.8929
vn -0.5336 0.0523 -0.8441
vn 0.3829 0.2068 0.9003
vn 0.9329 0.0470 0.3570
vn 0.7628 -0.1451 0.6301
vn -0.3497 -0.1693 0.9214
vn 0.8533 -0.1610 0.4959
vn 0.8532 -0.1596 0.4966
vn 0.8523 -0.1503 0.5011
vn 0.8294 0.1981 0.5224
vn -0.6013 0.2319 -0.7647
vn 0.9990 0.0134 -0.0434
vn 0.3860 0.8890 -0.2462
vn -0.4166 0.5315 0.7375
vn -0.3942 0.8075 0.4388
vn -0.8830 0.1362 -0.4492
vn -0.7942 -0.1180 -0.5961
vn 0.7301 0.3260 0.6006
vn 0.7663 -0.3441 0.5425
vn -0.9525 0.0458 0.3011
vn -0.6234 -0.2164 0.7514
vn -0.6453 -0.4024 0.6494
vn -0.4448 0.8956 0.0025
vn -0.4449 0.8956 0.0025
vn 0.3652 0.5571 -0.7458
vn 0.8886 0.4264 -0.1689
vn 0.7899 0.5674 -0.2327
vn 0.2667 0.7614 0.5908
vn -0.7751 -0.1288 0.6186
vn -0.1867 0.6901 0.6993
vn -0.9053 -0.4247 -0.0049
vn 0.3927 -0.4583 -0.7973
vn -0.8072 0.0429 -0.5888
vn 0.0449 -0.5501 -0.8339
vn -0.7629 0.3804 -0.5228
vn -0.8524 0.1518 -0.5004
vn 0.9660 0.0708 0.2486
vn -0.9647 0.2562 -0.0605
vn 0.9573 0.2890 -0.0090
vn -0.8873 0.0742 -0.4552
vn -0.8882 0.0754 -0.4532
vn -0.8875 0.0745 -0.4547
vn 0.6461 0.4362 -0.6263
vn 0.6435 0.5166 -0.5648
vn 0.7232 -0.2606 -0.6396
vn 0.5187 -0.7155 -0.4679
vn -0.3051 0.0716 0.9496
vn 0.3324 0.0828 -0.9395
vn -0.2919 0.2988 0.9086
vn 0.1163 0.2966 -0.9479
vn 0.2698 -0.1050 -0.9572
vn 0.8556 0.2215 -0.4678
vn -0.9029 0.1961 0.3825
vn -0.3148 0.1471 -0.9377
vn 0.4680 0.2199 0.8559
vn -0.4314 -0.0899 0.8977
vn 0.9872 0.0051 -0.1591
vn 0.8522 -0.1492 0.5016
vn -0.5081 -0.2659 0.8192
vn 0.8939 -0.1939 0.4041
vn 0.9250 -0.1124 0.3630
vn 0.9933 -0.0949 0.0663
vn -0.5805 0.4505 0.6783
vn -0.1122 0.7662 0.6328
vn -0.8103 -0.1552 -0.5650
vn -0.7878 -0.1277 -0.6025
vn 0.8342 0.2130 0.5086
vn -0.5118 -0.3159 0.7989
vn 0.8262 0.5512 0.1168
vn 0.8163 0.3048 -0.4907
vn -0.0280 0.5757 0.8172
vn -0.8015 -0.4245 0.4211
vn -0.2255 0.6644 0.7126
vn -0.9195 -0.2523 0.3014
vn 0.1693 -0.6254 -0.7617
vn -0.8256 0.0015 -0.5643
vn -0.2827 -0.7472 -0.6015
vn -0.8884 0.0757 -0.4527
vn -0.9745 0.2243 0.0092
vn 0.9223 0.1364 0.3617
vn -0.9213 0.0527 -0.3852
vn 0.5118 0.5023 -0.6969
vn 0.5142 -0.3893 -0.7642
vn 0.2295 -0.7656 -0.6010
vn 0.4225 0.0654 -0.9040
vn 0.0092 0.2108 0.9775
vn -0.0092 0.2337 -0.9723
vn 0.4027 -0.4102 -0.8182

vt 0.707133 0.665896
vt 0.677240 0.654678
vt 0.684885 0.614378
vt 0.600362 0.598148
vt 0.574837 0.561436
vt 0.623598 0.578797
vt 0.450577 0.898187
vt 0.455202 0.876698
vt 0.487755 0.884472
vt 0.435978 0.830580
vt 0.465780 0.831058
vt 0.565574 0.626920
vt 0.548203 0.600588
vt 0.432333 0.803024
vt 0.451687 0.791340
vt 0.487755 0.801902
vt 0.563881 0.656883
vt 0.538247 0.636155
vt 0.983825 0.350634
vt 0.983825 0.403493
vt 0.965767 0.361586
vt 0.437278 0.964950
vt 0.452870 0.913476
vt 0.463091 0.964950
vt 0.847309 0.193616
vt 0.822955 0.225299
vt 0.806188 0.202177
vt 0.066242 0.983656
vt 0.048773 0.938233
vt 0.066242 0.931419
vt 0.780635 0.249745
vt 0.763072 0.198242
vt 0.506450 0.659175
vt 0.496027 0.636321
vt 0.836445 0.242671
vt 0.787283 0.275497
vt 0.744820 0.270536
vt 0.611719 0.948911
vt 0.611719 0.976960
vt 0.593397 0.961151
vt 0.826154 0.277507
vt 0.777624 0.314090
vt 0.733459 0.658619
vt 0.732816 0.689476
vt 0.758792 0.300173
vt 0.943400 0.208205
vt 0.962957 0.193616
vt 0.962957 0.267537
vt 0.777310 0.673454
vt 0.781357 0.696472
vt 0.545131 0.656645
vt 0.530653 0.690097
vt 0.805927 0.335390
vt 0.787663 0.348123
vt 0.508718 0.706512
vt 0.542256 0.731511
vt 0.507189 0.733093
vt 0.548235 0.688727
vt 0.751702 0.333797
vt 0.583687 0.914502
vt 0.583687 0.955199
vt 0.565828 0.923746
vt 0.717138 0.693362
vt 0.569744 0.741831
vt 0.740374 0.725789
vt 0.876951 0.306090
vt 0.906699 0.260317
vt 0.900469 0.302446
vt 0.699816 0.727872
vt 0.699129 0.684135
vt 0.596681 0.707095
vt 0.880113 0.229210
vt 0.897417 0.193616
vt 0.658936 0.692650
vt 0.669456 0.714655
vt 0.646526 0.675934
vt 0.431756 0.913476
vt 0.429255 0.937347
vt 0.406128 0.931479
vt 0.101238 0.868940
vt 0.122433 0.890930
vt 0.098585 0.887749
vt 0.083839 0.891190
vt 0.079300 0.865466
vt 0.114771 0.908573
vt 0.085415 0.908573
vt 0.270415 0.818981
vt 0.254512 0.858896
vt 0.243400 0.822927
vt 0.259295 0.797247
vt 0.286763 0.809201
vt 0.418905 0.955211
vt 0.404520 0.964960
vt 0.629120 0.664481
vt 0.632102 0.692327
vt 0.644988 0.706932
vt 0.243400 0.977908
vt 0.258006 0.944766
vt 0.266179 0.977908
vt 0.237583 0.977687
vt 0.220439 0.960491
vt 0.237583 0.951211
vt 0.243400 0.475321
vt 0.273406 0.468865
vt 0.266748 0.507951
vt 0.890497 0.933704
vt 0.914255 0.941328
vt 0.892621 0.948432
vt 0.284707 0.510693
vt 0.852831 0.357613
vt 0.862090 0.332011
vt 0.894919 0.355731
vt 0.888005 0.329701
vt 0.781088 0.959212
vt 0.772146 0.975873
vt 0.767237 0.946891
vt 0.861353 0.311664
vt 0.894919 0.311608
vt 0.909260 0.971470
vt 0.919969 0.953950
vt 0.919969 0.978858
vt 0.144295 0.616572
vt 0.160927 0.634903
vt 0.122141 0.669166
vt 0.073597 0.777206
vt 0.105202 0.770446
vt 0.074381 0.795946
vt 0.038994 0.791390
vt 0.132978 0.795497
vt 0.106555 0.811266
vt 0.048333 0.803538
vt 0.330829 0.899620
vt 0.330829 0.954482
vt 0.299439 0.915066
vt 0.083941 0.839476
vt 0.061903 0.832647
vt 0.042210 0.845205
vt 0.948930 0.878647
vt 0.948930 0.931787
vt 0.928304 0.901618
vt 0.180561 0.184052
vt 0.188455 0.141560
vt 0.213126 0.180102
vt 0.239330 0.165302
vt 0.018398 0.813476
vt 0.264651 0.096868
vt 0.276019 0.049962
vt 0.293917 0.085453
vt 0.189524 0.093974
vt 0.212690 0.127757
vt 0.756692 0.463016
vt 0.720202 0.425198
vt 0.747212 0.416798
vt 0.691505 0.434293
vt 0.142541 0.136171
vt 0.141811 0.105938
vt 0.222608 0.093198
vt 0.234496 0.054986
vt 0.743801 0.478620
vt 0.928581 0.787063
vt 0.951297 0.807290
vt 0.928304 0.816721
vt 0.213475 0.044058
vt 0.186634 0.948525
vt 0.209445 0.943346
vt 0.209445 0.978024
vt 0.746535 0.507702
vt 0.684825 0.487422
vt 0.019431 0.959148
vt 0.016980 0.931419
vt 0.043251 0.971903
vt 0.382662 0.785822
vt 0.388377 0.723901
vt 0.423658 0.761250
vt 0.724463 0.535336
vt 0.418262 0.718082
vt 0.423658 0.675654
vt 0.694692 0.547850
vt 0.655695 0.507282
vt 0.395269 0.669609
vt 0.377814 0.770866
vt 0.324448 0.772339
vt 0.357362 0.746498
vt 0.328361 0.729683
vt 0.358876 0.694039
vt 0.393023 0.644683
vt 0.420237 0.649291
vt 0.087186 0.576550
vt 0.138222 0.560391
vt 0.130195 0.589284
vt 0.319250 0.656942
vt 0.769576 0.529561
vt 0.732567 0.555918
vt 0.043721 0.620560
vt 0.085904 0.584809
vt 0.082901 0.645193
vt 0.053483 0.666381
vt 0.763426 0.555918
vt 0.361414 0.658877
vt 0.351555 0.629242
vt 0.082323 0.733802
vt 0.038217 0.682377
vt 0.071755 0.713018
vt 0.037700 0.716141
vt 0.120157 0.745149
vt 0.113786 0.710220
vt 0.175143 0.568098
vt 0.163601 0.599076
vt 0.113082 0.605216
vt 0.116039 0.255693
vt 0.140112 0.234429
vt 0.139664 0.267757
vt 0.110962 0.283494
vt 0.094069 0.273811
vt 0.044941 0.216868
vt 0.085709 0.165790
vt 0.088170 0.183020
vt 0.016980 0.187913
vt 0.038553 0.154028
vt 0.072331 0.142854
vt 0.888316 0.023340
vt 0.880074 0.074741
vt 0.861831 0.052999
vt 0.910843 0.040896
vt 0.924640 0.057086
vt 0.858847 0.094121
vt 0.981346 0.495174
vt 0.970286 0.463498
vt 0.981346 0.450588
vt 0.366017 0.957296
vt 0.336768 0.956753
vt 0.336351 0.911632
vt 0.118611 0.138816
vt 0.893038 0.093003
vt 0.912236 0.637097
vt 0.891168 0.603962
vt 0.912236 0.586947
vt 0.926857 0.311608
vt 0.926857 0.340628
vt 0.900441 0.330253
vt 0.979248 0.409011
vt 0.979248 0.440766
vt 0.965767 0.420036
vt 0.910342 0.662342
vt 0.891441 0.651304
vt 0.923431 0.075175
vt 0.969660 0.947207
vt 0.969660 0.980741
vt 0.954452 0.959508
vt 0.855709 0.583377
vt 0.883965 0.624581
vt 0.142231 0.451573
vt 0.188710 0.440351
vt 0.149638 0.462904
vt 0.112838 0.476939
vt 0.121823 0.455792
vt 0.119509 0.494650
vt 0.203416 0.432220
vt 0.219606 0.448053
vt 0.867073 0.651465
vt 0.864759 0.619514
vt 0.163586 0.485375
vt 0.193885 0.517656
vt 0.119766 0.518285
vt 0.199707 0.461002
vt 0.212186 0.490656
vt 0.269202 0.261370
vt 0.232013 0.272911
vt 0.211508 0.224294
vt 0.232094 0.214943
vt 0.204852 0.262977
vt 0.179352 0.231681
vt 0.149993 0.241453
vt 0.142956 0.173114
vt 0.199517 0.629119
vt 0.196172 0.662931
vt 0.066670 0.865517
vt 0.073778 0.912511
vt 0.047007 0.885728
vt 0.543053 0.835788
vt 0.584237 0.897331
vt 0.553549 0.908984
vt 0.615704 0.834325
vt 0.614322 0.873722
vt 0.593397 0.822664
vt 0.645042 0.103687
vt 0.646052 0.165639
vt 0.636194 0.138292
vt 0.260780 0.758371
vt 0.243400 0.727489
vt 0.292854 0.748386
vt 0.614391 0.051955
vt 0.645893 0.043968
vt 0.596566 0.087160
vt 0.138500 0.921053
vt 0.145943 0.859418
vt 0.181112 0.921053
vt 0.597986 0.017857
vt 0.550022 0.061540
vt 0.214917 0.937829
vt 0.186634 0.876872
vt 0.214917 0.859418
vt 0.590191 0.134725
vt 0.397368 0.899620
vt 0.397368 0.956172
vt 0.371539 0.913391
vt 0.514843 0.128964
vt 0.523324 0.081115
vt 0.622780 0.168024
vt 0.252982 0.617485
vt 0.243400 0.547787
vt 0.275399 0.564791
vt 0.275399 0.516210
vt 0.170521 0.256816
vt 0.557369 0.181417
vt 0.504947 0.170867
vt 0.508554 0.206094
vt 0.429180 0.756012
vt 0.464229 0.741132
vt 0.464229 0.781881
vt 0.596629 0.219078
vt 0.528437 0.267208
vt 0.944356 0.561436
vt 0.944356 0.647119
vt 0.917758 0.616698
vt 0.180927 0.721658
vt 0.189678 0.758562
vt 0.140364 0.731018
vt 0.621088 0.223333
vt 0.190667 0.802101
vt 0.138500 0.785727
vt 0.588577 0.276793
vt 0.971480 0.017857
vt 0.971480 0.088334
vt 0.954216 0.057404
vt 0.623321 0.276481
vt 0.720891 0.866369
vt 0.720891 0.939697
vt 0.693115 0.914559
vt 0.222659 0.776129
vt 0.237718 0.810687
vt 0.212198 0.828647
vt 0.658477 0.213122
vt 0.406492 0.623724
vt 0.428151 0.587006
vt 0.472968 0.623724
vt 0.293917 0.328966
vt 0.253750 0.355864
vt 0.283261 0.309721
vt 0.344853 0.575579
vt 0.383210 0.555180
vt 0.435444 0.533436
vt 0.477926 0.566204
vt 0.672480 0.188255
vt 0.339011 0.546106
vt 0.443857 0.461512
vt 0.476926 0.517109
vt 0.396468 0.449974
vt 0.222434 0.405739
vt 0.151706 0.397535
vt 0.135221 0.357024
vt 0.225723 0.331691
vt 0.212002 0.368819
vt 0.369424 0.501135
vt 0.310332 0.552492
vt 0.311124 0.501405
vt 0.336430 0.442591
vt 0.340016 0.437578
vt 0.127328 0.419094
vt 0.086474 0.374998
vt 0.870371 0.489254
vt 0.902648 0.450588
vt 0.902648 0.533178
vt 0.085276 0.352094
vt 0.931182 0.350634
vt 0.937059 0.387292
vt 0.912827 0.392824
vt 0.937059 0.445070
vt 0.556847 0.795327
vt 0.587875 0.831086
vt 0.672480 0.074780
vt 0.885484 0.713467
vt 0.857114 0.734657
vt 0.855709 0.694719
vt 0.744820 0.118299
vt 0.795144 0.116058
vt 0.757783 0.152952
vt 0.398998 0.820678
vt 0.390557 0.851279
vt 0.362355 0.834783
vt 0.357807 0.866576
vt 0.810850 0.120861
vt 0.785727 0.158279
vt 0.814774 0.076016
vt 0.840394 0.107883
vt 0.835974 0.135112
vt 0.805996 0.167124
vt 0.387371 0.869329
vt 0.372727 0.893369
vt 0.836226 0.181249
vt 0.909877 0.452117
vt 0.924390 0.504218
vt 0.908170 0.512630
vt 0.487985 0.913476
vt 0.487985 0.974863
vt 0.468613 0.927499
vt 0.662142 0.762689
vt 0.629120 0.791142
vt 0.638546 0.765620
vt 0.660166 0.783970
vt 0.640653 0.822513
vt 0.789745 0.806417
vt 0.822565 0.809975
vt 0.786879 0.838392
vt 0.703734 0.762852
vt 0.704348 0.803476
vt 0.675548 0.791760
vt 0.841771 0.844508
vt 0.672353 0.817834
vt 0.792788 0.889913
vt 0.841573 0.874890
vt 0.398998 0.890278
vt 0.668205 0.857241
vt 0.650934 0.824173
vt 0.949167 0.667860
vt 0.946017 0.715322
vt 0.931508 0.691086
vt 0.884975 0.886885
vt 0.857308 0.886090
vt 0.706885 0.831514
vt 0.730361 0.860851
vt 0.480530 0.735614
vt 0.436998 0.710145
vt 0.474914 0.711400
vt 0.138500 0.938747
vt 0.167065 0.926571
vt 0.167065 0.965889
vt 0.346557 0.894102
vt 0.324117 0.865006
vt 0.440129 0.676306
vt 0.488367 0.672840
vt 0.451664 0.631331
vt 0.480483 0.646469
vt 0.488367 0.629242
vt 0.318221 0.811537
vt 0.347805 0.841913
vt 0.892340 0.667860
vt 0.855981 0.668915
vt 0.044525 0.925901
vt 0.016980 0.925901
vt 0.249068 0.278939
vt 0.792411 0.070266
vt 0.812085 0.045462
vt 0.693193 0.736324
vt 0.860985 0.452305
vt 0.864849 0.500026
vt 0.826294 0.474391
vt 0.855278 0.555918
vt 0.826636 0.506076
vt 0.183694 0.597156
vt 0.954689 0.681721
vt 0.971989 0.667860
vt 0.971989 0.735746
vt 0.970582 0.611246
vt 0.949878 0.591105
vt 0.970582 0.561436
vt 0.813150 0.395239
vt 0.864561 0.396307
vt 0.812485 0.409980
vt 0.761715 0.961054
vt 0.735883 0.968921
vt 0.740713 0.937933
vt 0.135675 0.154108
vt 0.872568 0.561436
vt 0.120039 0.549689
vt 0.128540 0.200851
vt 0.622075 0.943394
vt 0.593397 0.913391
vt 0.622075 0.879240
vt 0.092463 0.229300
vt 0.069941 0.217466
vt 0.276456 0.844868
vt 0.974638 0.112724
vt 0.974638 0.177013
vt 0.956457 0.167131
vt 0.509643 0.872582
vt 0.506610 0.835210
vt 0.406956 0.907958
vt 0.404520 0.870649
vt 0.650801 0.622905
vt 0.610575 0.665531
vt 0.601330 0.630933
vt 0.650839 0.585337
vt 0.684159 0.590061
vt 0.486950 0.838404
vt 0.716685 0.594523
vt 0.276777 0.906568
vt 0.293454 0.869601
vt 0.293454 0.924636
vt 0.716643 0.561436
vt 0.739768 0.602161
vt 0.759816 0.589737
vt 0.756368 0.644420
vt 0.753671 0.241085
vt 0.847309 0.272918
vt 0.779501 0.736324
vt 0.779501 0.811241
vt 0.771783 0.764608
vt 0.779621 0.730806
vt 0.640646 0.951931
vt 0.629120 0.897046
vt 0.652787 0.901471
vt 0.964764 0.450588
vt 0.964764 0.518014
vt 0.944889 0.482596
vt 0.956819 0.847777
vt 0.976036 0.840157
vt 0.976036 0.869505
vt 0.652787 0.866369
vt 0.553209 0.938959
vt 0.550090 0.766511
vt 0.937878 0.284179
vt 0.930575 0.243593
vt 0.855084 0.282679
vt 0.852831 0.241347
vt 0.612086 0.744095
vt 0.623598 0.716039
vt 0.928061 0.213851
vt 0.897600 0.142299
vt 0.861490 0.173643
vt 0.858847 0.120991
vt 0.897153 0.102830
vt 0.924246 0.142837
vt 0.100721 0.850723
vt 0.129100 0.868671
vt 0.431757 0.957120
vt 0.274970 0.794986
vt 0.892879 0.897824
vt 0.914255 0.871835
vt 0.907203 0.903449
vt 0.631445 0.714162
vt 0.904562 0.927055
vt 0.630890 0.730806
vt 0.650882 0.728997
vt 0.767894 0.926845
vt 0.781088 0.932542
vt 0.937878 0.194702
vt 0.973160 0.655778
vt 0.949878 0.647198
vt 0.973160 0.630621
vt 0.773104 0.353641
vt 0.773104 0.405897
vt 0.744820 0.384499
vt 0.275499 0.721971
vt 0.243400 0.692393
vt 0.275499 0.670019
vt 0.812015 0.914686
vt 0.812015 0.962346
vt 0.786879 0.925955
vt 0.263480 0.650582
vt 0.162994 0.678924
vt 0.144434 0.713137
vt 0.273405 0.623003
vt 0.119634 0.845205
vt 0.954689 0.777419
vt 0.969941 0.741264
vt 0.978827 0.777419
vt 0.547687 0.914502
vt 0.547687 0.970683
vt 0.525668 0.945037
vt 0.932756 0.957612
vt 0.775953 0.456662
vt 0.931885 0.112724
vt 0.950935 0.139129
vt 0.930162 0.168561
vt 0.951297 0.873130
vt 0.166909 0.159680
vt 0.157287 0.058379
vt 0.950935 0.183673
vt 0.654994 0.458628
vt 0.192348 0.017857
vt 0.960245 0.432866
vt 0.942581 0.399218
vt 0.960245 0.350634
vt 0.236961 0.026552
vt 0.043251 0.936454
vt 0.016980 0.765597
vt 0.041920 0.753239
vt 0.016980 0.612679
vt 0.055161 0.570831
vt 0.299439 0.669399
vt 0.051723 0.721658
vt 0.951512 0.625103
vt 0.099567 0.250807
vt 0.286763 0.864083
vt 0.289549 0.930154
vt 0.289549 0.974568
vt 0.276777 0.945667
vt 0.366017 0.899620
vt 0.033749 0.121235
vt 0.155913 0.424611
vt 0.781475 0.440498
vt 0.237878 0.460608
vt 0.944889 0.554190
vt 0.968976 0.523532
vt 0.969411 0.554190
vt 0.840058 0.050458
vt 0.816229 0.017857
vt 0.853325 0.025355
vt 0.741437 0.862479
vt 0.767575 0.871429
vt 0.735883 0.888724
vt 0.978669 0.787063
vt 0.978669 0.834639
vt 0.956819 0.805805
vt 0.686057 0.942496
vt 0.686057 0.980096
vt 0.658309 0.964655
vt 0.716367 0.972939
vt 0.693115 0.972939
vt 0.710267 0.945214
vt 0.790669 0.036696
vt 0.587875 0.867095
vt 0.615704 0.772028
vt 0.292853 0.789469
vt 0.735883 0.784770
vt 0.766261 0.736324
vt 0.766261 0.834136
vt 0.824007 0.367376
vt 0.864849 0.371666
vt 0.496027 0.101080
vt 0.271255 0.939248
vt 0.243400 0.906396
vt 0.271255 0.869601
vt 0.907305 0.445070
vt 0.870371 0.408052
vt 0.907305 0.367376
vt 0.237718 0.740078
vt 0.687593 0.936978
vt 0.658309 0.918430
vt 0.687593 0.866369
vt 0.515672 0.772028
vt 0.057772 0.387592
vt 0.299439 0.451372
vt 0.081627 0.297407
vt 0.562998 0.794397
vt 0.337059 0.791340
vt 0.379365 0.791404
vt 0.365403 0.809741
vt 0.898919 0.748176
vt 0.921451 0.753410
vt 0.921451 0.705758
vt 0.777638 0.089053
vt 0.754725 0.188098
vt 0.968921 0.278045
vt 0.980583 0.273054
vt 0.980583 0.318677
vt 0.939367 0.530719
vt 0.939367 0.450588
vt 0.853325 0.150472
vt 0.817504 0.899226
vt 0.808449 0.787063
vt 0.835565 0.793188
vt 0.866394 0.818271
vt 0.841201 0.909168
vt 0.926973 0.734903
vt 0.884975 0.844241
vt 0.949167 0.762416
vt 0.429180 0.651040
vt 0.496027 0.914502
vt 0.520146 0.916172
vt 0.497818 0.947901
vt 0.520146 0.967847
vt 0.299439 0.843522
vt 0.857373 0.914686
vt 0.871182 0.957802
vt 0.844717 0.957802
vt 0.476614 0.741132
vt 0.490193 0.774701
vt 0.469751 0.774701
vt 0.022370 0.876230
vt 0.171406 0.824558
vt 0.256693 0.196087
vt 0.165279 0.853901
vt 0.288262 0.217949
vt 0.767575 0.921327
vt 0.111145 0.953042
vt 0.131822 0.914091
vt 0.131822 0.970576
vt 0.237878 0.680943
vt 0.783975 0.447416
vt 0.247721 0.783268
vt 0.730361 0.774077
vt 0.766234 0.839654
vt 0.181461 0.532125
vt 0.761715 0.926845
vt 0.245326 0.139119
vt 0.047425 0.850723
vt 0.284707 0.424611
vt 0.232574 0.431926
vt 0.497631 0.906150
vt 0.839195 0.966762
vt 0.817537 0.942212
vt 0.839195 0.914686
vt 0.897839 0.173643
vt 0.924640 0.017857
vt 0.496027 0.812478
vt 0.862048 0.099638
vt 0.733888 0.362757
vt 0.719330 0.344440
vt 0.737419 0.247189
vt 0.438748 0.426044
vt 0.418450 0.361930
vt 0.434883 0.334130
vt 0.711937 0.404499
vt 0.739298 0.410938
vt 0.786879 0.781546
vt 0.822917 0.735897
vt 0.814530 0.779028
vt 0.678002 0.402349
vt 0.684193 0.342428
vt 0.699090 0.342220
vt 0.582566 0.316559
vt 0.596847 0.355272
vt 0.590267 0.477574
vt 0.403722 0.240701
vt 0.434068 0.219681
vt 0.439035 0.180668
vt 0.430856 0.133197
vt 0.446265 0.130629
vt 0.706009 0.212367
vt 0.739298 0.171327
vt 0.410415 0.182012
vt 0.394580 0.191466
vt 0.318097 0.185078
vt 0.323946 0.173394
vt 0.602402 0.518985
vt 0.582083 0.489679
vt 0.392567 0.209360
vt 0.922782 0.866317
vt 0.900041 0.850186
vt 0.919183 0.850186
vt 0.869860 0.759353
vt 0.861913 0.780017
vt 0.855709 0.758928
vt 0.893702 0.787063
vt 0.907795 0.788461
vt 0.587626 0.508595
vt 0.511465 0.523984
vt 0.521984 0.535211
vt 0.496027 0.549831
vt 0.299439 0.162974
vt 0.303207 0.157244
vt 0.490505 0.017857
vt 0.649472 0.555918
vt 0.630787 0.543143
vt 0.633722 0.513375
vt 0.706870 0.126476
vt 0.725905 0.122812
vt 0.690493 0.020540
vt 0.704431 0.017857
vt 0.954452 0.940717
vt 0.965750 0.922381
vt 0.973541 0.941690
vt 0.105623 0.916837
vt 0.082971 0.920097
vt 0.089319 0.914091
vt 0.232439 0.912736
vt 0.228550 0.941501
vt 0.220439 0.910651
vt 0.223473 0.862349
vt 0.957163 0.921944
vt 0.973541 0.878647
vt 0.281081 0.676661
vt 0.292899 0.617815
vt 0.292899 0.679464
vt 0.483448 0.533077
vt 0.490246 0.504562
vt 0.490246 0.532253
vt 0.291683 0.719086
vt 0.283367 0.689201
vt 0.291683 0.684981
vt 0.289918 0.549785
vt 0.285746 0.516210
vt 0.292899 0.517004
vt 0.619456 0.544742
vt 0.292899 0.611815
vt 0.280921 0.550133
vt 0.654994 0.395016
vt 0.670530 0.289166
vt 0.670530 0.404380
vt 0.453370 0.350118
vt 0.603113 0.282310
vt 0.621863 0.328983
vt 0.472102 0.414461
vt 0.621448 0.440217
vt 0.948694 0.107207
vt 0.935125 0.017857
vt 0.948694 0.020837
vt 0.420700 0.126681
vt 0.903738 0.982124
vt 0.895952 0.955858
vt 0.903738 0.953950
vt 0.963399 0.340541
vt 0.949805 0.275523
vt 0.963399 0.273054
vt 0.847612 0.598013
vt 0.846413 0.716962
vt 0.850188 0.777436
vt 0.819849 0.577283
vt 0.850188 0.563424
vt 0.410766 0.432061
vt 0.811017 0.702556
vt 0.490505 0.401149
vt 0.704497 0.174062
vt 0.890497 0.866317
vt 0.869860 0.780497
vt 0.503365 0.555918
vt 0.479222 0.019737
vt 0.634585 0.553403
vt 0.079300 0.941742
vt 0.235709 0.945694
vt 0.235709 0.859418
vt 0.488533 0.499045
vt 0.483448 0.439735
vt 0.488533 0.437578
vt 0.283907 0.617333
vt 0.484459 0.506161
vt 0.281081 0.718831
vt 0.979697 0.241666
vt 0.968479 0.239258
vt 0.979697 0.193616
vt 0.659154 0.282310
vt 0.635353 0.284983
vt 0.930162 0.103137
vt 0.105623 0.963666
vt 0.890497 0.984707
vt 0.943400 0.343303
vt 0.830197 0.561436

f 13/1/1 2/2/1 6/3/1
f 287/4/2 4/5/2 288/6/2
f 1/7/3 3/8/3 5/9/3
f 4/10/4 9/11/4 3/8/4
f 7/12/5 8/13/5 4/5/5
f 8/14/6 12/15/6 9/11/6
f 12/15/7 16/16/7 9/11/7
f 39/17/8 8/13/8 7/12/8
f 39/17/9 14/18/9 8/13/9
f 11/19/10 16/20/10 17/21/10
f 8/22/11 15/23/11 12/24/11
f 12/25/12 15/26/12 16/27/12
f 8/28/13 18/29/13 15/30/13
f 16/27/14 19/31/15 17/32/16
f 14/18/17 23/33/17 18/34/17
f 15/26/18 19/31/15 16/27/14
f 18/35/19 24/36/19 19/31/19
f 19/31/20 24/36/20 25/37/20
f 14/38/21 39/39/21 30/40/21
f 21/41/22 26/42/22 18/35/22
f 13/1/23 22/43/23 35/44/23
f 18/35/24 26/42/24 24/36/24
f 24/36/25 29/45/25 25/37/25
f 21/46/26 23/47/26 31/48/26
f 25/49/27 35/44/27 22/43/27
f 29/50/28 35/44/28 25/49/28
f 23/33/29 30/51/30 27/52/31
f 26/42/32 31/53/32 33/54/32
f 28/55/33 27/52/33 36/56/33
f 28/55/34 36/56/34 31/57/34
f 27/52/35 30/51/35 40/58/35
f 26/42/36 33/54/36 32/59/36
f 26/42/37 32/59/37 29/45/37
f 31/60/38 36/61/38 33/62/38
f 13/1/39 35/44/39 43/63/39
f 40/58/40 42/64/40 36/56/40
f 35/44/41 37/65/41 43/63/41
f 34/66/42 45/67/42 38/68/42
f 37/65/43 46/69/43 43/63/43
f 43/63/44 46/69/44 47/70/44
f 13/1/45 43/63/45 47/70/45
f 39/17/46 44/71/46 40/58/46
f 40/58/47 44/71/47 42/64/47
f 281/72/48 282/73/48 45/67/48
f 284/74/49 47/70/49 283/75/49
f 284/74/50 285/76/50 2/2/50
f 2/2/51 13/1/51 47/70/51
f 66/77/52 52/78/52 59/79/52
f 51/80/53 276/81/53 53/82/53
f 51/80/54 53/82/54 55/83/54
f 51/80/55 55/83/55 52/84/55
f 276/81/56 277/85/56 53/82/56
f 54/86/57 55/83/57 53/82/57
f 54/87/58 48/88/58 286/89/58
f 54/87/59 58/90/59 55/91/59
f 56/92/60 58/93/60 59/79/60
f 286/94/61 285/76/61 57/95/61
f 57/95/62 285/76/62 60/96/62
f 284/97/63 62/98/63 60/99/63
f 62/100/64 64/101/64 60/102/64
f 282/103/65 273/104/65 62/105/65
f 59/106/66 64/107/66 67/108/66
f 62/105/67 273/104/67 63/109/67
f 273/110/68 274/111/68 63/112/68
f 63/112/69 274/111/69 65/113/69
f 65/114/70 66/115/70 64/116/70
f 274/111/71 275/117/71 66/118/71
f 67/119/72 66/120/72 59/121/72
f 265/122/73 147/123/73 73/124/73
f 72/125/74 71/126/74 79/127/74
f 101/128/75 72/125/75 79/127/75
f 71/126/76 76/129/76 78/130/76
f 101/128/77 79/127/77 80/131/77
f 76/132/78 258/133/78 77/134/78
f 260/135/79 79/127/79 78/130/79
f 261/136/80 262/137/80 80/131/80
f 267/138/81 82/139/81 266/140/81
f 266/141/82 83/142/82 263/143/82
f 263/143/83 83/142/83 259/144/83
f 101/128/84 80/131/84 87/145/84
f 81/146/85 87/147/85 262/148/85
f 83/142/86 88/149/86 84/150/86
f 268/151/87 85/152/87 82/153/87
f 268/151/88 90/154/88 85/152/88
f 85/155/89 90/156/89 83/142/89
f 86/157/90 88/149/90 89/158/90
f 268/151/91 271/159/91 90/154/91
f 101/160/92 87/161/92 94/162/92
f 88/149/93 92/163/93 89/158/93
f 89/164/94 92/165/94 93/166/94
f 271/159/95 272/167/95 95/168/95
f 94/169/96 93/170/96 101/171/96
f 95/172/97 99/173/97 91/174/97
f 272/167/98 105/175/98 95/168/98
f 96/176/99 99/173/99 93/177/99
f 95/168/100 105/175/100 102/178/100
f 95/168/101 102/178/101 97/179/101
f 93/177/102 99/173/102 104/180/102
f 97/181/103 102/182/103 98/183/103
f 99/173/104 103/184/104 106/185/104
f 98/183/105 102/182/105 103/184/105
f 104/180/106 110/186/106 100/187/106
f 105/188/107 139/189/108 68/190/109
f 106/185/110 103/184/110 113/191/110
f 105/175/111 68/192/112 107/193/113
f 108/194/114 107/195/114 114/196/114
f 108/194/115 114/196/115 111/197/115
f 68/192/116 69/198/116 107/193/116
f 109/199/117 113/191/117 112/200/117
f 101/128/118 112/201/118 72/125/118
f 113/202/119 70/203/119 112/204/119
f 111/197/120 70/203/120 113/202/120
f 112/201/121 70/205/121 71/126/121
f 114/196/122 74/206/122 111/197/122
f 139/189/123 270/207/123 269/208/123
f 114/196/124 69/209/124 265/122/124
f 114/196/125 265/122/125 73/124/125
f 115/210/126 116/211/126 201/212/126
f 257/213/127 277/214/127 115/210/127
f 273/215/128 119/216/128 118/217/128
f 273/215/129 120/218/129 121/219/129
f 273/215/130 121/219/130 119/216/130
f 119/216/131 121/219/131 124/220/131
f 281/221/132 122/222/132 120/223/132
f 41/224/133 129/225/133 122/222/133
f 120/223/134 122/222/134 123/226/134
f 120/227/135 123/228/135 130/229/135
f 130/230/136 126/231/136 121/232/136
f 271/233/137 119/216/137 124/220/137
f 122/222/138 125/234/138 123/226/138
f 122/222/139 129/225/139 125/234/139
f 126/235/140 127/236/140 124/237/140
f 123/238/141 125/239/141 128/240/141
f 123/241/142 128/242/142 130/243/142
f 130/244/143 131/245/143 126/235/143
f 125/234/144 129/225/144 136/246/144
f 127/247/145 131/248/145 132/249/145
f 272/250/146 127/236/146 132/251/146
f 128/252/147 136/253/147 134/254/147
f 128/252/148 131/255/148 130/256/148
f 131/255/149 134/254/149 135/257/149
f 129/258/150 133/259/150 136/253/150
f 128/252/151 134/254/151 131/255/151
f 132/251/152 135/260/152 137/261/152
f 134/254/153 138/262/153 135/257/153
f 138/262/154 255/263/154 135/257/154
f 135/257/155 255/263/155 137/264/155
f 136/253/156 138/262/156 134/254/156
f 137/264/157 255/263/157 139/189/157
f 133/259/158 140/265/158 136/253/158
f 138/262/159 165/266/159 255/263/159
f 143/267/160 144/268/160 145/269/160
f 143/267/161 145/269/161 146/270/161
f 251/271/162 145/269/162 144/268/162
f 247/272/163 256/273/163 266/141/163
f 145/269/164 266/141/164 263/143/164
f 256/273/165 267/274/165 266/141/165
f 147/123/166 244/275/166 246/276/166
f 148/277/167 249/278/167 149/279/167
f 154/280/168 159/281/168 156/282/168
f 152/283/169 184/284/169 158/285/169
f 158/286/170 184/287/170 162/288/170
f 157/289/171 156/290/171 160/291/171
f 158/286/172 159/292/172 155/293/172
f 162/288/173 163/294/173 158/286/173
f 158/286/174 163/294/174 159/292/174
f 160/295/175 166/296/175 161/297/175
f 156/298/176 163/294/176 164/299/176
f 156/300/177 164/301/177 166/302/177
f 162/288/178 184/287/178 168/303/178
f 161/304/179 166/305/179 165/306/179
f 162/288/180 168/303/180 163/294/180
f 163/294/181 168/303/181 169/307/181
f 163/294/182 166/308/182 164/299/182
f 168/303/183 184/287/183 176/309/183
f 167/310/184 171/311/184 170/312/184
f 170/312/185 171/311/185 174/313/185
f 197/314/186 256/273/186 247/272/186
f 168/303/187 176/309/187 172/315/187
f 169/307/188 172/315/188 171/316/188
f 171/316/189 172/315/189 173/317/189
f 171/318/190 173/319/190 174/320/190
f 173/317/191 177/321/191 178/322/191
f 174/323/192 178/324/192 175/325/192
f 178/326/193 179/327/193 175/328/193
f 176/309/194 184/287/194 180/329/194
f 179/327/195 183/330/195 249/331/195
f 178/322/196 180/329/196 181/332/196
f 179/333/197 186/334/197 183/335/197
f 180/329/198 185/336/198 181/332/198
f 181/337/199 188/338/199 182/339/199
f 182/340/200 188/341/200 186/342/200
f 184/287/201 187/343/201 180/329/201
f 185/344/202 189/345/202 188/346/202
f 188/347/203 190/348/203 186/349/203
f 187/350/204 191/351/204 185/344/204
f 189/345/205 194/352/205 190/353/205
f 184/287/206 193/354/206 187/343/206
f 187/350/207 193/355/207 191/351/207
f 194/352/208 199/356/208 195/357/208
f 191/351/209 200/358/209 194/352/209
f 194/359/210 198/360/210 199/361/210
f 192/362/211 195/363/211 197/314/211
f 195/363/212 201/212/212 197/314/212
f 196/364/213 184/365/213 202/366/213
f 196/364/214 202/366/214 203/367/214
f 196/364/215 204/368/215 200/358/215
f 200/369/216 289/370/216 198/360/216
f 288/371/217 200/372/217 154/373/217
f 290/374/218 257/213/218 199/361/218
f 184/375/219 152/376/219 202/377/219
f 202/377/220 152/376/220 153/378/220
f 204/379/221 153/380/221 154/280/221
f 153/381/222 158/286/222 155/293/222
f 206/382/223 210/383/223 205/384/223
f 210/385/224 212/386/224 213/387/224
f 213/388/225 217/389/225 211/390/225
f 211/390/226 217/389/226 207/391/226
f 213/387/227 215/392/227 214/393/227
f 252/394/228 220/395/228 212/386/228
f 215/392/229 220/395/229 216/396/229
f 215/392/230 218/397/230 214/393/230
f 207/391/231 219/398/231 226/399/231
f 218/397/232 216/396/233 223/400/234
f 218/401/235 219/402/235 217/403/235
f 219/404/236 223/405/236 224/406/236
f 220/407/237 222/408/237 216/409/237
f 221/410/238 228/411/238 222/408/238
f 222/412/239 228/413/240 223/414/241
f 248/415/242 259/416/242 225/417/242
f 223/414/241 228/413/240 233/418/243
f 221/410/244 225/417/244 229/419/244
f 224/420/245 233/418/245 231/421/245
f 224/422/246 226/399/246 219/398/246
f 229/419/247 230/423/247 227/424/247
f 233/425/248 234/426/248 231/427/248
f 233/418/249 237/428/249 234/429/249
f 232/430/250 81/431/250 230/423/250
f 230/432/251 81/433/251 235/434/251
f 234/435/252 237/436/252 240/437/252
f 236/438/253 240/439/253 207/391/253
f 235/434/254 262/440/254 237/441/254
f 262/440/255 239/442/255 238/443/255
f 239/442/256 240/444/256 238/443/256
f 241/445/257 242/446/257 240/439/257
f 77/447/258 205/384/258 241/448/258
f 149/279/259 150/449/259 151/450/259
f 254/451/260 190/348/260 144/268/260
f 254/451/261 186/349/261 190/348/261
f 144/268/262 192/362/262 251/271/262
f 252/394/263 151/452/263 142/453/263
f 252/454/264 248/415/264 220/407/264
f 170/455/265 174/456/265 243/457/265
f 174/456/266 175/458/266 244/459/266
f 270/207/267 243/460/267 269/208/267
f 161/461/268 133/462/268 279/463/268
f 256/464/269 116/465/269 117/466/269
f 255/467/270 167/468/270 141/469/270
f 258/470/271 264/471/271 148/472/271
f 267/274/272 118/217/272 268/473/272
f 124/237/273 127/236/273 271/474/273
f 269/208/274 243/460/274 147/123/274
f 272/475/275 137/264/275 139/189/275
f 272/250/276 132/251/276 137/261/276
f 271/474/277 127/236/277 272/250/277
f 268/473/278 118/217/278 119/216/278
f 267/274/279 256/273/279 117/476/279
f 282/477/280 281/478/280 120/479/280
f 275/480/281 274/481/281 118/217/281
f 277/482/282 48/88/282 54/87/282
f 279/483/283 133/484/283 280/485/283
f 154/280/284 278/486/284 287/487/284
f 289/488/285 288/489/285 1/7/285
f 50/490/286 285/76/286 286/94/286
f 279/491/287 39/17/287 278/492/287
f 1/493/288 5/494/288 6/3/288
f 288/489/289 4/10/289 3/8/289
f 3/8/290 9/11/290 10/495/290
f 3/8/291 10/495/291 5/9/291
f 287/4/292 7/12/293 4/5/294
f 6/3/295 5/494/295 11/496/295
f 4/497/296 8/498/296 9/499/296
f 13/1/297 6/3/297 11/496/297
f 9/11/298 16/16/298 10/495/298
f 5/494/299 10/500/299 11/496/299
f 13/1/300 11/496/300 17/501/300
f 17/501/301 22/43/301 13/1/301
f 11/496/302 10/500/302 16/502/302
f 22/43/303 17/501/303 20/503/303
f 8/13/304 14/18/304 18/34/304
f 20/504/305 17/32/305 19/31/305
f 15/26/306 18/35/306 19/31/306
f 18/35/307 23/505/307 21/41/307
f 20/504/308 19/31/308 25/37/308
f 20/503/309 25/49/309 22/43/309
f 14/18/310 30/51/310 23/33/310
f 21/41/311 31/53/311 26/42/311
f 29/45/312 24/36/312 26/42/312
f 23/33/29 27/52/31 28/55/313
f 31/506/314 23/507/314 28/508/314
f 29/50/315 32/509/315 35/44/315
f 40/58/316 30/51/316 39/17/316
f 35/510/317 32/511/317 38/512/317
f 35/513/318 38/514/318 37/515/318
f 33/516/319 34/517/319 38/518/319
f 32/511/320 33/519/320 38/512/320
f 36/56/321 27/52/321 40/58/321
f 33/62/322 36/61/322 34/520/322
f 34/521/323 36/56/323 42/64/323
f 37/522/324 38/68/324 45/67/324
f 37/522/325 45/67/325 46/523/325
f 281/72/326 42/524/326 41/525/326
f 281/72/327 34/66/327 42/524/327
f 45/67/328 34/66/328 281/72/328
f 42/64/329 44/71/329 41/526/329
f 280/527/330 41/526/330 44/71/330
f 279/491/331 44/71/331 39/17/331
f 45/67/332 282/73/332 283/528/332
f 283/528/333 46/523/333 45/67/333
f 283/75/334 47/70/334 46/69/334
f 284/74/335 2/2/335 47/70/335
f 50/490/336 2/2/336 285/76/336
f 49/529/337 48/530/337 290/531/337
f 49/529/338 290/531/338 1/532/338
f 49/529/339 1/532/339 50/533/339
f 50/490/340 6/3/340 2/2/340
f 50/490/341 1/493/341 6/3/341
f 3/8/342 1/7/342 288/489/342
f 66/534/343 51/80/343 52/84/343
f 51/80/344 275/535/344 276/81/344
f 55/536/345 56/92/345 52/78/345
f 54/86/346 53/82/346 277/85/346
f 56/92/347 59/79/347 52/78/347
f 56/537/348 55/91/348 58/90/348
f 54/87/349 286/89/349 58/90/349
f 58/538/350 286/539/350 57/540/350
f 58/538/351 57/540/351 59/106/351
f 285/76/352 284/74/352 60/96/352
f 57/95/353 60/96/353 61/541/353
f 59/106/354 57/540/354 61/542/354
f 61/541/355 60/96/355 64/543/355
f 284/74/356 283/75/356 62/544/356
f 62/545/357 63/546/357 64/116/357
f 59/106/358 61/542/358 64/107/358
f 62/547/359 283/528/359 282/73/359
f 64/116/360 63/546/360 65/114/360
f 67/548/361 64/549/361 66/550/361
f 66/118/362 65/113/362 274/111/362
f 51/80/363 66/534/363 275/535/363
f 265/122/364 69/209/364 68/190/364
f 73/551/365 75/552/365 74/553/365
f 70/554/366 74/555/366 76/556/366
f 70/557/367 76/558/367 71/559/367
f 76/556/368 74/555/368 75/560/368
f 71/126/369 78/130/369 79/127/369
f 73/124/370 147/123/370 264/561/370
f 73/124/371 264/561/371 75/562/371
f 76/556/372 75/560/372 258/563/372
f 76/129/373 77/564/373 78/130/373
f 75/565/374 264/566/374 258/567/374
f 77/568/375 258/569/375 250/570/375
f 260/135/376 78/130/376 77/564/376
f 261/136/377 79/127/377 260/135/377
f 79/127/378 261/136/378 80/131/378
f 266/140/379 82/139/379 83/571/379
f 87/145/380 80/131/380 262/137/380
f 268/151/381 82/153/381 267/572/381
f 81/146/382 86/157/382 87/147/382
f 86/157/383 84/150/383 88/149/383
f 86/573/384 89/574/384 94/575/384
f 86/576/385 94/162/385 87/161/385
f 83/142/386 82/577/386 85/155/386
f 88/149/387 83/142/387 90/156/387
f 88/149/388 90/156/388 91/578/388
f 89/574/389 93/579/389 94/575/389
f 91/580/390 90/154/390 95/168/390
f 88/149/391 91/578/391 92/163/391
f 95/168/392 90/154/392 271/159/392
f 92/163/393 91/578/393 96/581/393
f 95/582/394 97/583/394 99/584/394
f 96/176/395 91/174/395 99/173/395
f 92/163/396 96/581/396 93/585/396
f 93/170/397 100/586/397 101/171/397
f 100/187/398 93/177/398 104/180/398
f 99/173/399 97/181/399 98/183/399
f 104/180/400 99/173/400 106/185/400
f 101/128/401 100/587/401 110/588/401
f 99/173/402 98/183/402 103/184/402
f 105/188/107 272/475/403 139/189/108
f 102/178/404 105/175/111 107/193/113
f 104/180/405 106/185/405 109/199/405
f 104/180/406 109/199/406 110/186/406
f 103/589/407 102/590/407 107/195/407
f 103/589/408 107/195/408 108/194/408
f 106/185/409 113/191/409 109/199/409
f 103/589/410 108/194/410 111/197/410
f 113/191/411 103/184/411 111/591/411
f 114/196/412 107/195/412 69/209/412
f 110/588/413 109/592/413 112/201/413
f 110/588/414 112/201/414 101/128/414
f 112/201/415 71/126/415 72/125/415
f 114/196/416 73/124/416 74/206/416
f 68/190/417 139/189/417 269/208/417
f 70/203/418 111/197/418 74/206/418
f 116/465/419 256/464/419 201/593/419
f 115/210/420 201/212/420 257/213/420
f 276/594/421 115/210/421 277/214/421
f 277/482/422 257/595/422 48/88/422
f 276/596/423 116/597/423 115/598/423
f 117/476/424 116/211/424 276/594/424
f 275/480/425 117/476/425 276/594/425
f 118/217/426 117/476/426 275/480/426
f 120/599/427 130/230/427 121/232/427
f 121/219/428 126/600/428 124/220/428
f 127/236/429 126/235/429 131/245/429
f 128/252/430 125/601/430 136/253/430
f 131/245/431 135/260/431 132/251/431
f 136/253/432 140/265/432 138/262/432
f 141/469/433 139/602/433 255/467/433
f 165/266/434 138/262/434 140/265/434
f 140/265/435 161/603/435 165/266/435
f 161/604/436 140/605/436 133/606/436
f 143/607/437 253/608/437 254/609/437
f 254/451/438 144/268/438 143/267/438
f 145/269/439 251/271/439 197/314/439
f 145/269/440 197/314/440 247/272/440
f 145/269/441 247/272/441 266/141/441
f 263/143/442 146/270/442 145/269/442
f 147/123/443 243/460/443 244/275/443
f 148/610/444 246/611/444 245/612/444
f 249/613/445 148/614/445 245/615/445
f 150/449/446 149/279/446 249/278/446
f 249/616/447 253/617/447 150/618/447
f 142/619/448 150/620/448 253/621/448
f 150/622/449 142/453/449 151/452/449
f 143/607/450 142/453/450 253/608/450
f 154/280/451 155/623/451 159/281/451
f 153/624/452 152/283/452 158/285/452
f 156/298/453 159/292/453 163/294/453
f 160/291/454 161/625/454 157/289/454
f 160/626/455 156/627/455 166/628/455
f 165/629/456 166/630/456 167/468/456
f 163/294/457 169/307/457 166/308/457
f 167/631/458 166/308/458 169/307/458
f 167/632/459 169/633/459 171/634/459
f 169/307/460 168/303/460 172/315/460
f 172/315/461 176/309/461 177/321/461
f 173/317/462 172/315/462 177/321/462
f 174/635/463 173/636/463 178/637/463
f 175/328/464 179/327/464 249/331/464
f 177/321/465 176/309/465 180/329/465
f 178/322/466 177/321/466 180/329/466
f 178/326/467 181/638/468 182/340/469
f 178/326/467 182/340/469 179/327/470
f 179/327/471 182/340/471 186/342/471
f 181/639/472 185/640/472 188/641/472
f 180/329/473 187/343/473 185/336/473
f 188/346/474 189/345/474 190/353/474
f 185/344/475 191/351/475 189/345/475
f 144/268/476 190/348/476 192/362/476
f 197/314/477 251/271/477 192/362/477
f 190/353/478 194/352/478 195/357/478
f 190/348/479 195/363/479 192/362/479
f 189/345/480 191/351/480 194/352/480
f 191/351/481 193/355/481 196/364/481
f 191/351/482 196/364/482 200/358/482
f 195/363/483 199/361/483 201/212/483
f 194/359/484 200/369/484 198/360/484
f 196/364/485 193/355/485 184/365/485
f 199/361/486 257/213/486 201/212/486
f 196/364/487 203/367/487 204/368/487
f 290/374/488 199/361/488 289/370/488
f 199/361/489 198/360/489 289/370/489
f 256/273/490 197/314/490 201/212/490
f 200/642/491 204/379/491 154/280/491
f 289/370/492 200/369/492 288/643/492
f 203/367/493 202/366/493 153/644/493
f 48/645/494 257/213/494 290/374/494
f 204/379/495 203/646/495 153/380/495
f 154/280/496 153/380/496 155/623/496
f 207/391/497 242/446/497 211/390/497
f 205/647/498 210/648/498 208/649/498
f 211/390/499 205/647/499 208/649/499
f 209/650/500 206/382/500 151/651/500
f 206/382/501 250/652/501 151/651/501
f 210/383/502 206/382/502 209/650/502
f 208/649/503 210/648/503 213/388/503
f 211/390/504 208/649/504 213/388/504
f 210/385/505 209/653/505 212/386/505
f 209/653/506 151/452/506 212/386/506
f 151/452/507 252/394/507 212/386/507
f 213/387/508 212/386/508 215/392/508
f 217/654/509 213/387/509 214/393/509
f 215/655/510 212/656/510 220/657/510
f 220/407/511 248/415/511 221/410/511
f 217/654/512 214/393/512 218/397/512
f 207/658/513 217/403/513 219/402/513
f 215/392/514 216/396/514 218/397/514
f 219/402/515 218/401/515 223/659/515
f 216/396/233 222/660/516 223/400/234
f 225/417/517 221/410/517 248/415/517
f 220/407/518 221/410/518 222/408/518
f 224/420/519 223/414/519 233/418/519
f 221/410/520 229/419/520 227/424/520
f 224/420/521 231/421/521 226/661/521
f 228/413/522 221/662/522 227/663/522
f 228/413/523 230/664/523 233/418/523
f 226/661/524 231/421/524 236/665/524
f 226/399/525 236/438/525 207/391/525
f 225/417/526 259/416/526 229/419/526
f 228/413/527 227/663/527 230/664/527
f 236/666/528 231/427/528 234/426/528
f 233/418/529 230/664/529 235/667/529
f 229/419/530 259/416/531 232/430/532
f 230/423/533 229/419/530 232/430/532
f 233/418/534 235/667/534 237/428/534
f 236/666/535 234/426/535 240/668/535
f 235/434/536 81/433/536 262/440/536
f 240/444/537 237/441/537 238/443/537
f 238/443/538 237/441/538 262/440/538
f 239/442/539 262/440/539 261/669/539
f 261/670/540 260/671/540 239/672/540
f 239/672/541 260/671/541 241/673/541
f 240/439/542 239/674/542 241/445/542
f 207/391/543 240/439/543 242/446/543
f 241/675/544 260/676/544 77/677/544
f 77/447/545 206/382/545 205/384/545
f 241/678/546 211/679/546 242/680/546
f 206/382/547 77/447/547 250/652/547
f 241/445/548 205/647/548 211/390/548
f 250/681/549 149/279/549 151/450/549
f 249/331/550 183/330/550 253/682/550
f 183/330/551 186/342/551 253/682/551
f 143/267/552 146/270/552 248/683/552
f 186/342/553 254/684/553 253/682/553
f 143/267/554 248/683/554 252/685/554
f 244/459/555 243/457/555 174/456/555
f 252/394/556 142/453/556 143/607/556
f 175/686/557 245/612/557 246/611/557
f 245/687/558 175/688/558 249/689/558
f 175/690/559 246/276/559 244/275/559
f 167/468/560 255/467/560 165/629/560
f 270/691/561 141/469/561 243/457/561
f 279/692/562 157/289/562 161/625/562
f 243/457/563 141/469/563 170/455/563
f 167/468/564 170/455/564 141/469/564
f 146/270/565 263/143/565 248/683/565
f 267/274/566 117/476/566 118/217/566
f 248/415/567 263/693/567 259/416/567
f 265/122/568 269/208/568 147/123/568
f 265/122/569 68/190/569 269/208/569
f 264/694/570 246/611/570 148/610/570
f 270/207/571 139/189/571 141/695/571
f 149/696/572 258/470/572 148/472/572
f 84/150/573 232/697/573 259/144/573
f 259/144/574 83/142/574 84/150/574
f 86/157/575 81/146/575 232/697/575
f 232/697/576 84/150/576 86/157/576
f 119/216/577 271/233/577 268/473/577
f 246/276/578 264/561/578 147/123/578
f 250/681/579 258/698/579 149/279/579
f 118/217/580 274/481/580 273/215/580
f 282/103/581 120/699/581 273/104/581
f 280/700/582 133/259/582 129/258/582
f 278/492/583 39/17/583 7/12/583
f 122/222/584 281/221/584 41/224/584
f 279/491/585 280/527/585 44/71/585
f 278/486/586 156/282/586 279/701/586
f 156/702/587 157/703/587 279/704/587
f 286/705/588 49/529/588 50/533/588
f 278/486/589 154/280/589 156/282/589
f 49/529/590 286/705/590 48/530/590
f 41/224/591 280/706/591 129/225/591
f 154/280/592 287/487/592 288/707/592
f 7/12/293 287/4/292 278/492/593
f 289/708/594 1/532/594 290/531/594
f 325/709/595 295/710/595 327/711/595
f 324/712/596 298/713/596 326/714/596
f 291/715/597 325/709/597 323/716/597
f 293/717/598 339/718/598 337/719/598
f 336/720/599 296/721/599 338/722/599
f 339/723/600 297/724/600 340/725/600
f 296/721/601 327/711/601 338/722/601
f 326/714/602 299/726/602 328/727/602
f 301/728/603 311/729/603 330/730/603
f 328/731/604 341/732/604 327/711/604
f 328/727/605 302/733/606 301/728/607
f 304/734/608 306/735/608 307/736/608
f 300/737/609 342/738/609 340/725/609
f 302/733/610 303/739/610 304/734/610
f 300/740/611 304/741/611 305/742/611
f 307/743/612 345/744/612 344/745/612
f 305/742/613 307/746/613 344/747/613
f 305/748/614 343/749/614 342/738/614
f 344/750/615 309/751/615 343/749/615
f 307/736/616 308/752/616 310/753/616
f 311/729/617 332/754/617 330/730/617
f 329/755/618 333/756/618 341/757/618
f 341/732/619 330/758/619 329/759/619
f 329/759/620 332/760/620 331/761/620
f 346/762/621 316/763/622 329/764/621
f 346/765/623 314/766/623 315/767/623
f 317/768/624 322/769/624 319/770/624
f 315/771/625 317/768/625 319/770/625
f 315/772/626 334/773/626 316/763/626
f 316/774/627 318/775/627 333/776/627
f 319/777/628 335/778/628 334/779/628
f 318/780/629 335/781/629 321/782/629
f 317/783/630 321/784/630 320/785/630
f 300/737/631 333/756/631 314/786/631
f 314/787/632 318/788/632 317/783/632
f 329/789/633 312/790/633 346/791/633
f 340/725/634 341/757/634 300/737/634
f 296/792/635 326/714/635 328/727/635
f 293/793/636 325/794/636 297/724/636
f 324/712/637 296/792/637 292/795/637
f 297/724/638 327/796/639 340/725/640
f 311/797/641 312/798/641 313/799/641
f 302/733/642 346/800/642 311/729/642
f 306/801/643 309/802/643 308/803/643
f 303/804/644 343/805/644 306/806/644
f 295/710/645 338/722/645 327/711/645
f 339/718/646 299/807/646 298/808/646
f 291/715/647 338/722/647 295/710/647
f 294/809/648 339/718/648 298/808/648
f 340/810/649 303/811/649 299/807/649
f 324/712/650 294/812/650 298/713/650
f 291/715/651 295/710/651 325/709/651
f 293/717/652 297/813/652 339/718/652
f 336/814/653 292/795/653 296/792/653
f 296/721/654 328/731/654 327/711/654
f 326/714/655 298/713/655 299/726/655
f 301/728/607 302/733/606 311/729/656
f 328/731/657 301/815/657 341/732/657
f 328/727/658 299/726/658 302/733/658
f 304/734/659 303/739/659 306/735/659
f 300/737/609 305/748/609 342/738/609
f 302/733/660 299/726/660 303/739/660
f 300/740/611 302/816/611 304/741/611
f 307/743/661 310/817/661 345/744/661
f 305/742/662 304/741/662 307/746/662
f 305/748/663 344/750/663 343/749/663
f 344/750/664 345/818/664 309/751/664
f 307/736/665 306/735/665 308/752/665
f 311/729/617 313/819/617 332/754/617
f 329/755/618 316/820/618 333/756/618
f 341/732/666 301/815/666 330/758/666
f 329/759/620 330/758/620 332/760/620
f 346/762/621 315/772/622 316/763/622
f 346/765/623 300/821/623 314/766/623
f 317/768/667 320/822/667 322/769/667
f 315/771/668 314/823/668 317/768/668
f 315/824/669 319/825/669 334/826/669
f 316/774/670 334/827/670 318/775/670
f 319/777/671 322/828/671 335/778/671
f 318/780/672 334/829/672 335/781/672
f 317/783/673 318/788/673 321/784/673
f 300/737/674 341/757/674 333/756/674
f 314/830/675 333/831/675 318/832/675
f 329/789/633 331/833/633 312/790/633
f 340/725/640 327/796/639 341/757/676
f 293/793/677 323/834/677 325/794/677
f 324/712/678 326/714/678 296/792/678
f 297/724/679 325/794/679 327/796/679
f 311/797/641 346/835/641 312/798/641
f 302/836/680 300/821/680 346/765/680
f 306/801/681 343/837/681 309/802/681
f 303/804/682 342/838/682 343/805/682
f 339/718/683 340/810/683 299/807/683
f 291/715/684 336/720/684 338/722/684
f 294/809/685 337/719/685 339/718/685
f 340/810/686 342/839/686 303/811/686
